<svg xmlns="http://www.w3.org/2000/svg" xmlns:xlink="http://www.w3.org/1999/xlink" width="899" height="1095" contentScriptType="application/ecmascript" contentStyleType="text/css" style="width:899px;height:1095px" preserveAspectRatio="none" version="1.1" viewBox="0 0 899 1095" zoomAndPan="magnify"><defs><filter id="fld92mn" width="300%" height="300%" x="-1" y="-1"><feGaussianBlur result="blurOut" stdDeviation="2"/><feColorMatrix in="blurOut" result="blurOut2" type="matrix" values="0 0 0 0 0 0 0 0 0 0 0 0 0 0 0 0 0 0 .4 0"/><feOffset dx="4" dy="4" in="blurOut2" result="blurOut3"/><feBlend in="SourceGraphic" in2="blurOut3" mode="normal"/></filter></defs><g><text x="351.5" y="22.995" fill="#000" font-family="sans-serif" font-size="14" font-weight="bold" lengthAdjust="spacingAndGlyphs" textLength="199">Java EE Agent and CDSSO</text><rect style="stroke:#a80036;stroke-width:1" width="506" height="1060.07" x="392" y="34.297" fill="#FAFAFA"/><text x="614" y="46.364" fill="#000" font-family="sans-serif" font-size="13" font-weight="bold" lengthAdjust="spacingAndGlyphs" textLength="62">OpenAM</text><line style="stroke:#a80036;stroke-width:1;stroke-dasharray:5,5" x1="45" x2="45" y1="88.727" y2="1039.773"/><line style="stroke:#a80036;stroke-width:1;stroke-dasharray:5,5" x1="337" x2="337" y1="88.727" y2="1039.773"/><line style="stroke:#a80036;stroke-width:1;stroke-dasharray:5,5" x1="444" x2="444" y1="88.727" y2="1039.773"/><line style="stroke:#a80036;stroke-width:1;stroke-dasharray:5,5" x1="679" x2="679" y1="88.727" y2="1039.773"/><line style="stroke:#a80036;stroke-width:1;stroke-dasharray:5,5" x1="837" x2="837" y1="88.727" y2="1039.773"/><rect style="stroke:#a80036;stroke-width:1.5" width="71" height="30.297" x="8" y="53.43" fill="#FEFECE" filter="url(#fld92mn)"/><text x="15" y="73.425" fill="#000" font-family="sans-serif" font-size="14" lengthAdjust="spacingAndGlyphs" textLength="57">Browser</text><rect style="stroke:#a80036;stroke-width:1.5" width="71" height="30.297" x="8" y="1038.773" fill="#FEFECE" filter="url(#fld92mn)"/><text x="15" y="1058.769" fill="#000" font-family="sans-serif" font-size="14" lengthAdjust="spacingAndGlyphs" textLength="57">Browser</text><rect style="stroke:#a80036;stroke-width:1.5" width="93" height="46.594" x="289" y="37.133" fill="#FEFECE" filter="url(#fld92mn)"/><text x="296" y="57.128" fill="#000" font-family="sans-serif" font-size="14" lengthAdjust="spacingAndGlyphs" textLength="79">Java EE App</text><text x="307" y="73.425" fill="#000" font-family="sans-serif" font-size="14" lengthAdjust="spacingAndGlyphs" textLength="57">&amp; Agent</text><rect style="stroke:#a80036;stroke-width:1.5" width="93" height="46.594" x="289" y="1038.773" fill="#FEFECE" filter="url(#fld92mn)"/><text x="296" y="1058.769" fill="#000" font-family="sans-serif" font-size="14" lengthAdjust="spacingAndGlyphs" textLength="79">Java EE App</text><text x="307" y="1075.065" fill="#000" font-family="sans-serif" font-size="14" lengthAdjust="spacingAndGlyphs" textLength="57">&amp; Agent</text><rect style="stroke:#a80036;stroke-width:1.5" width="92" height="30.297" x="396" y="53.43" fill="#FEFECE" filter="url(#fld92mn)"/><text x="403" y="73.425" fill="#000" font-family="sans-serif" font-size="14" lengthAdjust="spacingAndGlyphs" textLength="78">CDCServlet</text><rect style="stroke:#a80036;stroke-width:1.5" width="92" height="30.297" x="396" y="1038.773" fill="#FEFECE" filter="url(#fld92mn)"/><text x="403" y="1058.769" fill="#000" font-family="sans-serif" font-size="14" lengthAdjust="spacingAndGlyphs" textLength="78">CDCServlet</text><rect style="stroke:#a80036;stroke-width:1.5" width="178" height="30.297" x="588" y="53.43" fill="#FEFECE" filter="url(#fld92mn)"/><text x="595" y="73.425" fill="#000" font-family="sans-serif" font-size="14" lengthAdjust="spacingAndGlyphs" textLength="164">Policy, Session Services</text><rect style="stroke:#a80036;stroke-width:1.5" width="178" height="30.297" x="588" y="1038.773" fill="#FEFECE" filter="url(#fld92mn)"/><text x="595" y="1058.769" fill="#000" font-family="sans-serif" font-size="14" lengthAdjust="spacingAndGlyphs" textLength="164">Policy, Session Services</text><rect style="stroke:#a80036;stroke-width:1.5" width="110" height="30.297" x="780" y="53.43" fill="#FEFECE" filter="url(#fld92mn)"/><text x="787" y="73.425" fill="#000" font-family="sans-serif" font-size="14" lengthAdjust="spacingAndGlyphs" textLength="96">AuthN Service</text><rect style="stroke:#a80036;stroke-width:1.5" width="110" height="30.297" x="780" y="1038.773" fill="#FEFECE" filter="url(#fld92mn)"/><text x="787" y="1058.769" fill="#000" font-family="sans-serif" font-size="14" lengthAdjust="spacingAndGlyphs" textLength="96">AuthN Service</text><polygon fill="#A80036" points="325.5 130.727 335.5 134.727 325.5 138.727 329.5 134.727" style="stroke:#a80036;stroke-width:1"/><line style="stroke:#a80036;stroke-width:1" x1="45.5" x2="331.5" y1="134.727" y2="134.727"/><text x="52.5" y="122.36" fill="#000" font-family="sans-serif" font-size="13" font-weight="bold" lengthAdjust="spacingAndGlyphs" textLength="9">1</text><text x="65.5" y="114.793" fill="#000" font-family="sans-serif" font-size="13" lengthAdjust="spacingAndGlyphs" textLength="193">Browse to protected resource.</text><text x="65.5" y="129.926" fill="#000" font-family="sans-serif" font-size="13" lengthAdjust="spacingAndGlyphs" textLength="255">No SSO token for resource domain, yet.</text><polygon fill="#A80036" points="56.5 174.992 46.5 178.992 56.5 182.992 52.5 178.992" style="stroke:#a80036;stroke-width:1"/><line style="stroke:#a80036;stroke-width:1" x1="50.5" x2="336.5" y1="178.992" y2="178.992"/><text x="62.5" y="166.625" fill="#000" font-family="sans-serif" font-size="13" font-weight="bold" lengthAdjust="spacingAndGlyphs" textLength="9">2</text><text x="75.5" y="159.059" fill="#000" font-family="sans-serif" font-size="13" lengthAdjust="spacingAndGlyphs" textLength="246">Set an amFilterCDSSORequest cookie,</text><text x="75.5" y="174.192" fill="#000" font-family="sans-serif" font-size="13" lengthAdjust="spacingAndGlyphs" textLength="89">and redirect...</text><polygon fill="#FBFB77" points="50 192.258 50 247.258 332 247.258 332 202.258 322 192.258 50 192.258" filter="url(#fld92mn)" style="stroke:#a80036;stroke-width:1"/><line style="stroke:#a80036;stroke-width:1" x1="322" x2="322" y1="192.258" y2="202.258"/><line style="stroke:#a80036;stroke-width:1" x1="332" x2="322" y1="202.258" y2="202.258"/><text x="56" y="209.325" fill="#000" font-family="sans-serif" font-size="13" lengthAdjust="spacingAndGlyphs" textLength="261">The amFilterCDSSORequest cookie holds</text><text x="56" y="224.458" fill="#000" font-family="sans-serif" font-size="13" lengthAdjust="spacingAndGlyphs" textLength="254">information consumed when processing</text><text x="56" y="239.59" fill="#000" font-family="sans-serif" font-size="13" lengthAdjust="spacingAndGlyphs" textLength="163">the form submitted in 15.</text><polygon fill="#A80036" points="432 273.656 442 277.656 432 281.656 436 277.656" style="stroke:#a80036;stroke-width:1"/><line style="stroke:#a80036;stroke-width:1" x1="45.5" x2="438" y1="277.656" y2="277.656"/><text x="52.5" y="272.723" fill="#000" font-family="sans-serif" font-size="13" font-weight="bold" lengthAdjust="spacingAndGlyphs" textLength="9">3</text><text x="65.5" y="272.723" fill="#000" font-family="sans-serif" font-size="13" lengthAdjust="spacingAndGlyphs" textLength="106">...to CDCServlet.</text><polygon fill="#A80036" points="667 317.789 677 321.789 667 325.789 671 321.789" style="stroke:#a80036;stroke-width:1"/><line style="stroke:#a80036;stroke-width:1" x1="444" x2="673" y1="321.789" y2="321.789"/><text x="451" y="309.422" fill="#000" font-family="sans-serif" font-size="13" font-weight="bold" lengthAdjust="spacingAndGlyphs" textLength="9">4</text><text x="464" y="301.856" fill="#000" font-family="sans-serif" font-size="13" lengthAdjust="spacingAndGlyphs" textLength="197">If browser presents SSO token,</text><text x="464" y="316.989" fill="#000" font-family="sans-serif" font-size="13" lengthAdjust="spacingAndGlyphs" textLength="190">request SSO token validation.</text><polygon fill="#A80036" points="455 362.055 445 366.055 455 370.055 451 366.055" style="stroke:#a80036;stroke-width:1"/><line style="stroke:#a80036;stroke-width:1" x1="449" x2="678" y1="366.055" y2="366.055"/><text x="461" y="353.688" fill="#000" font-family="sans-serif" font-size="13" font-weight="bold" lengthAdjust="spacingAndGlyphs" textLength="9">5</text><text x="474" y="346.122" fill="#000" font-family="sans-serif" font-size="13" lengthAdjust="spacingAndGlyphs" textLength="130">If SSO token is valid,</text><text x="474" y="361.254" fill="#000" font-family="sans-serif" font-size="13" lengthAdjust="spacingAndGlyphs" textLength="145">skip to 14. Otherwise...</text><polygon fill="#A80036" points="56.5 391.32 46.5 395.32 56.5 399.32 52.5 395.32" style="stroke:#a80036;stroke-width:1"/><line style="stroke:#a80036;stroke-width:1" x1="50.5" x2="443" y1="395.32" y2="395.32"/><text x="62.5" y="390.387" fill="#000" font-family="sans-serif" font-size="13" font-weight="bold" lengthAdjust="spacingAndGlyphs" textLength="9">6</text><text x="75.5" y="390.387" fill="#000" font-family="sans-serif" font-size="13" lengthAdjust="spacingAndGlyphs" textLength="64">Redirect...</text><polygon fill="#A80036" points="825 420.453 835 424.453 825 428.453 829 424.453" style="stroke:#a80036;stroke-width:1"/><line style="stroke:#a80036;stroke-width:1" x1="45.5" x2="831" y1="424.453" y2="424.453"/><text x="52.5" y="419.52" fill="#000" font-family="sans-serif" font-size="13" font-weight="bold" lengthAdjust="spacingAndGlyphs" textLength="9">7</text><text x="65.5" y="419.52" fill="#000" font-family="sans-serif" font-size="13" lengthAdjust="spacingAndGlyphs" textLength="204">...to OpenAM for authentication.</text><polygon fill="#A80036" points="56.5 449.586 46.5 453.586 56.5 457.586 52.5 453.586" style="stroke:#a80036;stroke-width:1"/><line style="stroke:#a80036;stroke-width:1" x1="50.5" x2="836" y1="453.586" y2="453.586"/><text x="62.5" y="448.653" fill="#000" font-family="sans-serif" font-size="13" font-weight="bold" lengthAdjust="spacingAndGlyphs" textLength="9">8</text><text x="75.5" y="448.653" fill="#000" font-family="sans-serif" font-size="13" lengthAdjust="spacingAndGlyphs" textLength="129">Authentication page</text><polygon fill="#A80036" points="825 478.719 835 482.719 825 486.719 829 482.719" style="stroke:#a80036;stroke-width:1"/><line style="stroke:#a80036;stroke-width:1" x1="45.5" x2="831" y1="482.719" y2="482.719"/><text x="52.5" y="477.786" fill="#000" font-family="sans-serif" font-size="13" font-weight="bold" lengthAdjust="spacingAndGlyphs" textLength="9">9</text><text x="65.5" y="477.786" fill="#000" font-family="sans-serif" font-size="13" lengthAdjust="spacingAndGlyphs" textLength="124">Submit credentials.</text><polygon fill="#A80036" points="56.5 522.852 46.5 526.852 56.5 530.852 52.5 526.852" style="stroke:#a80036;stroke-width:1"/><line style="stroke:#a80036;stroke-width:1" x1="50.5" x2="836" y1="526.852" y2="526.852"/><text x="62.5" y="514.485" fill="#000" font-family="sans-serif" font-size="13" font-weight="bold" lengthAdjust="spacingAndGlyphs" textLength="18">10</text><text x="84.5" y="506.918" fill="#000" font-family="sans-serif" font-size="13" lengthAdjust="spacingAndGlyphs" textLength="311">Set valid SSO token with OpenAM domain name,</text><text x="84.5" y="522.051" fill="#000" font-family="sans-serif" font-size="13" lengthAdjust="spacingAndGlyphs" textLength="89">and redirect...</text><polygon fill="#A80036" points="432 552.117 442 556.117 432 560.117 436 556.117" style="stroke:#a80036;stroke-width:1"/><line style="stroke:#a80036;stroke-width:1" x1="45.5" x2="438" y1="556.117" y2="556.117"/><text x="52.5" y="551.184" fill="#000" font-family="sans-serif" font-size="13" font-weight="bold" lengthAdjust="spacingAndGlyphs" textLength="18">11</text><text x="74.5" y="551.184" fill="#000" font-family="sans-serif" font-size="13" lengthAdjust="spacingAndGlyphs" textLength="106">...to CDCServlet.</text><polygon fill="#A80036" points="667 581.25 677 585.25 667 589.25 671 585.25" style="stroke:#a80036;stroke-width:1"/><line style="stroke:#a80036;stroke-width:1" x1="444" x2="673" y1="585.25" y2="585.25"/><text x="451" y="580.317" fill="#000" font-family="sans-serif" font-size="13" font-weight="bold" lengthAdjust="spacingAndGlyphs" textLength="18">12</text><text x="473" y="580.317" fill="#000" font-family="sans-serif" font-size="13" lengthAdjust="spacingAndGlyphs" textLength="189">Request SSO token validation</text><polygon fill="#A80036" points="455 610.383 445 614.383 455 618.383 451 614.383" style="stroke:#a80036;stroke-width:1"/><line style="stroke:#a80036;stroke-width:1" x1="449" x2="678" y1="614.383" y2="614.383"/><text x="461" y="609.45" fill="#000" font-family="sans-serif" font-size="13" font-weight="bold" lengthAdjust="spacingAndGlyphs" textLength="18">13</text><text x="483" y="609.45" fill="#000" font-family="sans-serif" font-size="13" lengthAdjust="spacingAndGlyphs" textLength="119">SSO token is valid.</text><polygon fill="#A80036" points="56.5 654.516 46.5 658.516 56.5 662.516 52.5 658.516" style="stroke:#a80036;stroke-width:1"/><line style="stroke:#a80036;stroke-width:1" x1="50.5" x2="443" y1="658.516" y2="658.516"/><text x="62.5" y="646.149" fill="#000" font-family="sans-serif" font-size="13" font-weight="bold" lengthAdjust="spacingAndGlyphs" textLength="18">14</text><text x="84.5" y="638.582" fill="#000" font-family="sans-serif" font-size="13" lengthAdjust="spacingAndGlyphs" textLength="195">Send self-submitting form with</text><text x="84.5" y="653.715" fill="#000" font-family="sans-serif" font-size="13" lengthAdjust="spacingAndGlyphs" textLength="212">Liberty AuthN Response (LARES).</text><polygon fill="#A80036" points="325.5 713.781 335.5 717.781 325.5 721.781 329.5 717.781" style="stroke:#a80036;stroke-width:1"/><line style="stroke:#a80036;stroke-width:1" x1="45.5" x2="331.5" y1="717.781" y2="717.781"/><text x="52.5" y="697.981" fill="#000" font-family="sans-serif" font-size="13" font-weight="bold" lengthAdjust="spacingAndGlyphs" textLength="18">15</text><text x="74.5" y="682.848" fill="#000" font-family="sans-serif" font-size="13" lengthAdjust="spacingAndGlyphs" textLength="197">Form POSTs automatically to a</text><text x="74.5" y="697.981" fill="#000" font-family="sans-serif" font-size="13" lengthAdjust="spacingAndGlyphs" textLength="167">policy agent endpoint that</text><text x="74.5" y="713.114" fill="#000" font-family="sans-serif" font-size="13" lengthAdjust="spacingAndGlyphs" textLength="158">consumes the response.</text><polygon fill="#FBFB77" points="50 731.18 50 786.18 359 786.18 359 741.18 349 731.18 50 731.18" filter="url(#fld92mn)" style="stroke:#a80036;stroke-width:1"/><line style="stroke:#a80036;stroke-width:1" x1="349" x2="349" y1="731.18" y2="741.18"/><line style="stroke:#a80036;stroke-width:1" x1="359" x2="349" y1="741.18" y2="741.18"/><text x="56" y="748.247" fill="#000" font-family="sans-serif" font-size="13" lengthAdjust="spacingAndGlyphs" textLength="288">Policy agent extracts SSO token from LARES,</text><text x="56" y="763.379" fill="#000" font-family="sans-serif" font-size="13" lengthAdjust="spacingAndGlyphs" textLength="274">Sets cookie domain to full URL of resource,</text><text x="56" y="778.512" fill="#000" font-family="sans-serif" font-size="13" lengthAdjust="spacingAndGlyphs" textLength="174">Validates LARES attributes.</text><polygon fill="#A80036" points="56.5 827.578 46.5 831.578 56.5 835.578 52.5 831.578" style="stroke:#a80036;stroke-width:1"/><line style="stroke:#a80036;stroke-width:1" x1="50.5" x2="336.5" y1="831.578" y2="831.578"/><text x="62.5" y="819.211" fill="#000" font-family="sans-serif" font-size="13" font-weight="bold" lengthAdjust="spacingAndGlyphs" textLength="18">16</text><text x="84.5" y="811.645" fill="#000" font-family="sans-serif" font-size="13" lengthAdjust="spacingAndGlyphs" textLength="224">Redirect, with request to delete the</text><text x="84.5" y="826.778" fill="#000" font-family="sans-serif" font-size="13" lengthAdjust="spacingAndGlyphs" textLength="208">amFilterCDSSORequest cookie...</text><polygon fill="#A80036" points="325.5 856.844 335.5 860.844 325.5 864.844 329.5 860.844" style="stroke:#a80036;stroke-width:1"/><line style="stroke:#a80036;stroke-width:1" x1="45.5" x2="331.5" y1="860.844" y2="860.844"/><text x="52.5" y="855.911" fill="#000" font-family="sans-serif" font-size="13" font-weight="bold" lengthAdjust="spacingAndGlyphs" textLength="18">17</text><text x="74.5" y="855.911" fill="#000" font-family="sans-serif" font-size="13" lengthAdjust="spacingAndGlyphs" textLength="155">...to protected resource.</text><polygon fill="#A80036" points="667 885.977 677 889.977 667 893.977 671 889.977" style="stroke:#a80036;stroke-width:1"/><line style="stroke:#a80036;stroke-width:1" x1="337.5" x2="673" y1="889.977" y2="889.977"/><text x="344.5" y="885.043" fill="#000" font-family="sans-serif" font-size="13" font-weight="bold" lengthAdjust="spacingAndGlyphs" textLength="18">18</text><text x="366.5" y="885.043" fill="#000" font-family="sans-serif" font-size="13" lengthAdjust="spacingAndGlyphs" textLength="189">Request SSO token validation</text><polygon fill="#A80036" points="348.5 915.109 338.5 919.109 348.5 923.109 344.5 919.109" style="stroke:#a80036;stroke-width:1"/><line style="stroke:#a80036;stroke-width:1" x1="342.5" x2="678" y1="919.109" y2="919.109"/><text x="354.5" y="914.176" fill="#000" font-family="sans-serif" font-size="13" font-weight="bold" lengthAdjust="spacingAndGlyphs" textLength="18">19</text><text x="376.5" y="914.176" fill="#000" font-family="sans-serif" font-size="13" lengthAdjust="spacingAndGlyphs" textLength="220">Response for SSO token validation</text><polygon fill="#A80036" points="667 944.242 677 948.242 667 952.242 671 948.242" style="stroke:#a80036;stroke-width:1"/><line style="stroke:#a80036;stroke-width:1" x1="337.5" x2="673" y1="948.242" y2="948.242"/><text x="344.5" y="943.309" fill="#000" font-family="sans-serif" font-size="13" font-weight="bold" lengthAdjust="spacingAndGlyphs" textLength="18">20</text><text x="366.5" y="943.309" fill="#000" font-family="sans-serif" font-size="13" lengthAdjust="spacingAndGlyphs" textLength="148">Request policy decision</text><polygon fill="#A80036" points="348.5 973.375 338.5 977.375 348.5 981.375 344.5 977.375" style="stroke:#a80036;stroke-width:1"/><line style="stroke:#a80036;stroke-width:1" x1="342.5" x2="678" y1="977.375" y2="977.375"/><text x="354.5" y="972.442" fill="#000" font-family="sans-serif" font-size="13" font-weight="bold" lengthAdjust="spacingAndGlyphs" textLength="18">21</text><text x="376.5" y="972.442" fill="#000" font-family="sans-serif" font-size="13" lengthAdjust="spacingAndGlyphs" textLength="179">Response for policy decision</text><polygon fill="#A80036" points="56.5 1017.508 46.5 1021.508 56.5 1025.508 52.5 1021.508" style="stroke:#a80036;stroke-width:1"/><line style="stroke:#a80036;stroke-width:1" x1="50.5" x2="336.5" y1="1021.508" y2="1021.508"/><text x="62.5" y="1009.141" fill="#000" font-family="sans-serif" font-size="13" font-weight="bold" lengthAdjust="spacingAndGlyphs" textLength="18">22</text><text x="84.5" y="1001.575" fill="#000" font-family="sans-serif" font-size="13" lengthAdjust="spacingAndGlyphs" textLength="202">Allow access &amp; return resource,</text><text x="84.5" y="1016.707" fill="#000" font-family="sans-serif" font-size="13" lengthAdjust="spacingAndGlyphs" textLength="222">or deny access &amp; return HTTP 403.</text></g></svg>