<svg xmlns="http://www.w3.org/2000/svg" xmlns:xlink="http://www.w3.org/1999/xlink" width="961" height="934" contentScriptType="application/ecmascript" contentStyleType="text/css" style="width:961px;height:934px" preserveAspectRatio="none" version="1.1" viewBox="0 0 961 934" zoomAndPan="magnify"><defs><filter id="f69z07f" width="300%" height="300%" x="-1" y="-1"><feGaussianBlur result="blurOut" stdDeviation="2"/><feColorMatrix in="blurOut" result="blurOut2" type="matrix" values="0 0 0 0 0 0 0 0 0 0 0 0 0 0 0 0 0 0 .4 0"/><feOffset dx="4" dy="4" in="blurOut2" result="blurOut3"/><feBlend in="SourceGraphic" in2="blurOut3" mode="normal"/></filter></defs><g><text x="392.25" y="22.995" fill="#000" font-family="sans-serif" font-size="14" font-weight="bold" lengthAdjust="spacingAndGlyphs" textLength="180">Web Agent and CDSSO</text><rect style="stroke:#a80036;stroke-width:1" width="510" height="898.711" x="450.5" y="34.297" fill="#FAFAFA"/><text x="674.5" y="46.364" fill="#000" font-family="sans-serif" font-size="13" font-weight="bold" lengthAdjust="spacingAndGlyphs" textLength="62">OpenAM</text><line style="stroke:#a80036;stroke-width:1;stroke-dasharray:5,5" x1="45" x2="45" y1="88.727" y2="894.711"/><line style="stroke:#a80036;stroke-width:1;stroke-dasharray:5,5" x1="337.5" x2="337.5" y1="88.727" y2="894.711"/><line style="stroke:#a80036;stroke-width:1;stroke-dasharray:5,5" x1="502.5" x2="502.5" y1="88.727" y2="894.711"/><line style="stroke:#a80036;stroke-width:1;stroke-dasharray:5,5" x1="741.5" x2="741.5" y1="88.727" y2="894.711"/><line style="stroke:#a80036;stroke-width:1;stroke-dasharray:5,5" x1="899.5" x2="899.5" y1="88.727" y2="894.711"/><rect style="stroke:#a80036;stroke-width:1.5" width="71" height="30.297" x="8" y="53.43" fill="#FEFECE" filter="url(#f69z07f)"/><text x="15" y="73.425" fill="#000" font-family="sans-serif" font-size="14" lengthAdjust="spacingAndGlyphs" textLength="57">Browser</text><rect style="stroke:#a80036;stroke-width:1.5" width="71" height="30.297" x="8" y="893.711" fill="#FEFECE" filter="url(#f69z07f)"/><text x="15" y="913.706" fill="#000" font-family="sans-serif" font-size="14" lengthAdjust="spacingAndGlyphs" textLength="57">Browser</text><rect style="stroke:#a80036;stroke-width:1.5" width="160" height="30.297" x="255.5" y="53.43" fill="#FEFECE" filter="url(#f69z07f)"/><text x="262.5" y="73.425" fill="#000" font-family="sans-serif" font-size="14" lengthAdjust="spacingAndGlyphs" textLength="146">HTTP Server &amp; Agent</text><rect style="stroke:#a80036;stroke-width:1.5" width="160" height="30.297" x="255.5" y="893.711" fill="#FEFECE" filter="url(#f69z07f)"/><text x="262.5" y="913.706" fill="#000" font-family="sans-serif" font-size="14" lengthAdjust="spacingAndGlyphs" textLength="146">HTTP Server &amp; Agent</text><rect style="stroke:#a80036;stroke-width:1.5" width="92" height="30.297" x="454.5" y="53.43" fill="#FEFECE" filter="url(#f69z07f)"/><text x="461.5" y="73.425" fill="#000" font-family="sans-serif" font-size="14" lengthAdjust="spacingAndGlyphs" textLength="78">CDCServlet</text><rect style="stroke:#a80036;stroke-width:1.5" width="92" height="30.297" x="454.5" y="893.711" fill="#FEFECE" filter="url(#f69z07f)"/><text x="461.5" y="913.706" fill="#000" font-family="sans-serif" font-size="14" lengthAdjust="spacingAndGlyphs" textLength="78">CDCServlet</text><rect style="stroke:#a80036;stroke-width:1.5" width="178" height="30.297" x="650.5" y="53.43" fill="#FEFECE" filter="url(#f69z07f)"/><text x="657.5" y="73.425" fill="#000" font-family="sans-serif" font-size="14" lengthAdjust="spacingAndGlyphs" textLength="164">Policy, Session Services</text><rect style="stroke:#a80036;stroke-width:1.5" width="178" height="30.297" x="650.5" y="893.711" fill="#FEFECE" filter="url(#f69z07f)"/><text x="657.5" y="913.706" fill="#000" font-family="sans-serif" font-size="14" lengthAdjust="spacingAndGlyphs" textLength="164">Policy, Session Services</text><rect style="stroke:#a80036;stroke-width:1.5" width="110" height="30.297" x="842.5" y="53.43" fill="#FEFECE" filter="url(#f69z07f)"/><text x="849.5" y="73.425" fill="#000" font-family="sans-serif" font-size="14" lengthAdjust="spacingAndGlyphs" textLength="96">AuthN Service</text><rect style="stroke:#a80036;stroke-width:1.5" width="110" height="30.297" x="842.5" y="893.711" fill="#FEFECE" filter="url(#f69z07f)"/><text x="849.5" y="913.706" fill="#000" font-family="sans-serif" font-size="14" lengthAdjust="spacingAndGlyphs" textLength="96">AuthN Service</text><polygon fill="#A80036" points="325.5 130.727 335.5 134.727 325.5 138.727 329.5 134.727" style="stroke:#a80036;stroke-width:1"/><line style="stroke:#a80036;stroke-width:1" x1="45.5" x2="331.5" y1="134.727" y2="134.727"/><text x="52.5" y="122.36" fill="#000" font-family="sans-serif" font-size="13" font-weight="bold" lengthAdjust="spacingAndGlyphs" textLength="9">1</text><text x="65.5" y="114.793" fill="#000" font-family="sans-serif" font-size="13" lengthAdjust="spacingAndGlyphs" textLength="193">Browse to protected resource.</text><text x="65.5" y="129.926" fill="#000" font-family="sans-serif" font-size="13" lengthAdjust="spacingAndGlyphs" textLength="255">No SSO token for resource domain, yet.</text><polygon fill="#A80036" points="56.5 159.992 46.5 163.992 56.5 167.992 52.5 163.992" style="stroke:#a80036;stroke-width:1"/><line style="stroke:#a80036;stroke-width:1" x1="50.5" x2="336.5" y1="163.992" y2="163.992"/><text x="62.5" y="159.059" fill="#000" font-family="sans-serif" font-size="13" font-weight="bold" lengthAdjust="spacingAndGlyphs" textLength="9">2</text><text x="75.5" y="159.059" fill="#000" font-family="sans-serif" font-size="13" lengthAdjust="spacingAndGlyphs" textLength="64">Redirect...</text><polygon fill="#A80036" points="490.5 189.125 500.5 193.125 490.5 197.125 494.5 193.125" style="stroke:#a80036;stroke-width:1"/><line style="stroke:#a80036;stroke-width:1" x1="45.5" x2="496.5" y1="193.125" y2="193.125"/><text x="52.5" y="188.192" fill="#000" font-family="sans-serif" font-size="13" font-weight="bold" lengthAdjust="spacingAndGlyphs" textLength="9">3</text><text x="65.5" y="188.192" fill="#000" font-family="sans-serif" font-size="13" lengthAdjust="spacingAndGlyphs" textLength="106">...to CDCServlet.</text><polygon fill="#A80036" points="729.5 233.258 739.5 237.258 729.5 241.258 733.5 237.258" style="stroke:#a80036;stroke-width:1"/><line style="stroke:#a80036;stroke-width:1" x1="502.5" x2="735.5" y1="237.258" y2="237.258"/><text x="509.5" y="224.891" fill="#000" font-family="sans-serif" font-size="13" font-weight="bold" lengthAdjust="spacingAndGlyphs" textLength="9">4</text><text x="522.5" y="217.325" fill="#000" font-family="sans-serif" font-size="13" lengthAdjust="spacingAndGlyphs" textLength="197">If browser presents SSO token,</text><text x="522.5" y="232.458" fill="#000" font-family="sans-serif" font-size="13" lengthAdjust="spacingAndGlyphs" textLength="190">request SSO token validation.</text><polygon fill="#A80036" points="513.5 277.523 503.5 281.523 513.5 285.523 509.5 281.523" style="stroke:#a80036;stroke-width:1"/><line style="stroke:#a80036;stroke-width:1" x1="507.5" x2="740.5" y1="281.523" y2="281.523"/><text x="519.5" y="269.157" fill="#000" font-family="sans-serif" font-size="13" font-weight="bold" lengthAdjust="spacingAndGlyphs" textLength="9">5</text><text x="532.5" y="261.59" fill="#000" font-family="sans-serif" font-size="13" lengthAdjust="spacingAndGlyphs" textLength="130">If SSO token is valid,</text><text x="532.5" y="276.723" fill="#000" font-family="sans-serif" font-size="13" lengthAdjust="spacingAndGlyphs" textLength="145">skip to 14. Otherwise...</text><polygon fill="#A80036" points="56.5 306.789 46.5 310.789 56.5 314.789 52.5 310.789" style="stroke:#a80036;stroke-width:1"/><line style="stroke:#a80036;stroke-width:1" x1="50.5" x2="501.5" y1="310.789" y2="310.789"/><text x="62.5" y="305.856" fill="#000" font-family="sans-serif" font-size="13" font-weight="bold" lengthAdjust="spacingAndGlyphs" textLength="9">6</text><text x="75.5" y="305.856" fill="#000" font-family="sans-serif" font-size="13" lengthAdjust="spacingAndGlyphs" textLength="64">Redirect...</text><polygon fill="#A80036" points="887.5 335.922 897.5 339.922 887.5 343.922 891.5 339.922" style="stroke:#a80036;stroke-width:1"/><line style="stroke:#a80036;stroke-width:1" x1="45.5" x2="893.5" y1="339.922" y2="339.922"/><text x="52.5" y="334.989" fill="#000" font-family="sans-serif" font-size="13" font-weight="bold" lengthAdjust="spacingAndGlyphs" textLength="9">7</text><text x="65.5" y="334.989" fill="#000" font-family="sans-serif" font-size="13" lengthAdjust="spacingAndGlyphs" textLength="204">...to OpenAM for authentication.</text><polygon fill="#A80036" points="56.5 365.055 46.5 369.055 56.5 373.055 52.5 369.055" style="stroke:#a80036;stroke-width:1"/><line style="stroke:#a80036;stroke-width:1" x1="50.5" x2="898.5" y1="369.055" y2="369.055"/><text x="62.5" y="364.122" fill="#000" font-family="sans-serif" font-size="13" font-weight="bold" lengthAdjust="spacingAndGlyphs" textLength="9">8</text><text x="75.5" y="364.122" fill="#000" font-family="sans-serif" font-size="13" lengthAdjust="spacingAndGlyphs" textLength="129">Authentication page</text><polygon fill="#A80036" points="887.5 394.188 897.5 398.188 887.5 402.188 891.5 398.188" style="stroke:#a80036;stroke-width:1"/><line style="stroke:#a80036;stroke-width:1" x1="45.5" x2="893.5" y1="398.188" y2="398.188"/><text x="52.5" y="393.254" fill="#000" font-family="sans-serif" font-size="13" font-weight="bold" lengthAdjust="spacingAndGlyphs" textLength="9">9</text><text x="65.5" y="393.254" fill="#000" font-family="sans-serif" font-size="13" lengthAdjust="spacingAndGlyphs" textLength="124">Submit credentials.</text><polygon fill="#A80036" points="56.5 423.32 46.5 427.32 56.5 431.32 52.5 427.32" style="stroke:#a80036;stroke-width:1"/><line style="stroke:#a80036;stroke-width:1" x1="50.5" x2="898.5" y1="427.32" y2="427.32"/><text x="62.5" y="422.387" fill="#000" font-family="sans-serif" font-size="13" font-weight="bold" lengthAdjust="spacingAndGlyphs" textLength="18">10</text><text x="84.5" y="422.387" fill="#000" font-family="sans-serif" font-size="13" lengthAdjust="spacingAndGlyphs" textLength="404">Set valid SSO token with OpenAM domain name, and redirect...</text><polygon fill="#A80036" points="490.5 452.453 500.5 456.453 490.5 460.453 494.5 456.453" style="stroke:#a80036;stroke-width:1"/><line style="stroke:#a80036;stroke-width:1" x1="45.5" x2="496.5" y1="456.453" y2="456.453"/><text x="52.5" y="451.52" fill="#000" font-family="sans-serif" font-size="13" font-weight="bold" lengthAdjust="spacingAndGlyphs" textLength="18">11</text><text x="74.5" y="451.52" fill="#000" font-family="sans-serif" font-size="13" lengthAdjust="spacingAndGlyphs" textLength="106">...to CDCServlet.</text><polygon fill="#A80036" points="729.5 481.586 739.5 485.586 729.5 489.586 733.5 485.586" style="stroke:#a80036;stroke-width:1"/><line style="stroke:#a80036;stroke-width:1" x1="502.5" x2="735.5" y1="485.586" y2="485.586"/><text x="509.5" y="480.653" fill="#000" font-family="sans-serif" font-size="13" font-weight="bold" lengthAdjust="spacingAndGlyphs" textLength="18">12</text><text x="531.5" y="480.653" fill="#000" font-family="sans-serif" font-size="13" lengthAdjust="spacingAndGlyphs" textLength="193">Request SSO token validation.</text><polygon fill="#A80036" points="513.5 510.719 503.5 514.719 513.5 518.719 509.5 514.719" style="stroke:#a80036;stroke-width:1"/><line style="stroke:#a80036;stroke-width:1" x1="507.5" x2="740.5" y1="514.719" y2="514.719"/><text x="519.5" y="509.786" fill="#000" font-family="sans-serif" font-size="13" font-weight="bold" lengthAdjust="spacingAndGlyphs" textLength="18">13</text><text x="541.5" y="509.786" fill="#000" font-family="sans-serif" font-size="13" lengthAdjust="spacingAndGlyphs" textLength="119">SSO token is valid.</text><polygon fill="#A80036" points="56.5 539.852 46.5 543.852 56.5 547.852 52.5 543.852" style="stroke:#a80036;stroke-width:1"/><line style="stroke:#a80036;stroke-width:1" x1="50.5" x2="501.5" y1="543.852" y2="543.852"/><text x="62.5" y="538.918" fill="#000" font-family="sans-serif" font-size="13" font-weight="bold" lengthAdjust="spacingAndGlyphs" textLength="18">14</text><text x="84.5" y="538.918" fill="#000" font-family="sans-serif" font-size="13" lengthAdjust="spacingAndGlyphs" textLength="411">Send self-submitting form with Liberty AuthN Response (LARES).</text><polygon fill="#A80036" points="325.5 583.984 335.5 587.984 325.5 591.984 329.5 587.984" style="stroke:#a80036;stroke-width:1"/><line style="stroke:#a80036;stroke-width:1" x1="45.5" x2="331.5" y1="587.984" y2="587.984"/><text x="52.5" y="575.618" fill="#000" font-family="sans-serif" font-size="13" font-weight="bold" lengthAdjust="spacingAndGlyphs" textLength="18">15</text><text x="74.5" y="568.051" fill="#000" font-family="sans-serif" font-size="13" lengthAdjust="spacingAndGlyphs" textLength="168">Form POSTs automatically</text><text x="74.5" y="583.184" fill="#000" font-family="sans-serif" font-size="13" lengthAdjust="spacingAndGlyphs" textLength="143">to protected resource.</text><polygon fill="#FBFB77" points="50 601.25 50 641.25 278 641.25 278 611.25 268 601.25 50 601.25" filter="url(#f69z07f)" style="stroke:#a80036;stroke-width:1"/><line style="stroke:#a80036;stroke-width:1" x1="268" x2="268" y1="601.25" y2="611.25"/><line style="stroke:#a80036;stroke-width:1" x1="278" x2="268" y1="611.25" y2="611.25"/><text x="56" y="618.317" fill="#000" font-family="sans-serif" font-size="13" lengthAdjust="spacingAndGlyphs" textLength="149">Policy agent intercepts,</text><text x="56" y="633.45" fill="#000" font-family="sans-serif" font-size="13" lengthAdjust="spacingAndGlyphs" textLength="207">Extracts SSO token from LARES.</text><polygon fill="#A80036" points="729.5 667.516 739.5 671.516 729.5 675.516 733.5 671.516" style="stroke:#a80036;stroke-width:1"/><line style="stroke:#a80036;stroke-width:1" x1="337.5" x2="735.5" y1="671.516" y2="671.516"/><text x="344.5" y="666.582" fill="#000" font-family="sans-serif" font-size="13" font-weight="bold" lengthAdjust="spacingAndGlyphs" textLength="18">16</text><text x="366.5" y="666.582" fill="#000" font-family="sans-serif" font-size="13" lengthAdjust="spacingAndGlyphs" textLength="193">Request SSO token validation.</text><polygon fill="#A80036" points="348.5 696.648 338.5 700.648 348.5 704.648 344.5 700.648" style="stroke:#a80036;stroke-width:1"/><line style="stroke:#a80036;stroke-width:1" x1="342.5" x2="740.5" y1="700.648" y2="700.648"/><text x="354.5" y="695.715" fill="#000" font-family="sans-serif" font-size="13" font-weight="bold" lengthAdjust="spacingAndGlyphs" textLength="18">17</text><text x="376.5" y="695.715" fill="#000" font-family="sans-serif" font-size="13" lengthAdjust="spacingAndGlyphs" textLength="224">Response for SSO token validation.</text><polygon fill="#A80036" points="729.5 725.781 739.5 729.781 729.5 733.781 733.5 729.781" style="stroke:#a80036;stroke-width:1"/><line style="stroke:#a80036;stroke-width:1" x1="337.5" x2="735.5" y1="729.781" y2="729.781"/><text x="344.5" y="724.848" fill="#000" font-family="sans-serif" font-size="13" font-weight="bold" lengthAdjust="spacingAndGlyphs" textLength="18">18</text><text x="366.5" y="724.848" fill="#000" font-family="sans-serif" font-size="13" lengthAdjust="spacingAndGlyphs" textLength="152">Request policy decision.</text><polygon fill="#A80036" points="348.5 754.914 338.5 758.914 348.5 762.914 344.5 758.914" style="stroke:#a80036;stroke-width:1"/><line style="stroke:#a80036;stroke-width:1" x1="342.5" x2="740.5" y1="758.914" y2="758.914"/><text x="354.5" y="753.981" fill="#000" font-family="sans-serif" font-size="13" font-weight="bold" lengthAdjust="spacingAndGlyphs" textLength="18">19</text><text x="376.5" y="753.981" fill="#000" font-family="sans-serif" font-size="13" lengthAdjust="spacingAndGlyphs" textLength="183">Response for policy decision.</text><polygon fill="#A80036" points="56.5 799.047 46.5 803.047 56.5 807.047 52.5 803.047" style="stroke:#a80036;stroke-width:1"/><line style="stroke:#a80036;stroke-width:1" x1="50.5" x2="336.5" y1="803.047" y2="803.047"/><text x="62.5" y="790.68" fill="#000" font-family="sans-serif" font-size="13" font-weight="bold" lengthAdjust="spacingAndGlyphs" textLength="18">20</text><text x="84.5" y="783.114" fill="#000" font-family="sans-serif" font-size="13" lengthAdjust="spacingAndGlyphs" textLength="233">Return a self-submitting form for the</text><text x="84.5" y="798.247" fill="#000" font-family="sans-serif" font-size="13" lengthAdjust="spacingAndGlyphs" textLength="189">originally requested resource.</text><polygon fill="#A80036" points="325.5 843.313 335.5 847.313 325.5 851.313 329.5 847.313" style="stroke:#a80036;stroke-width:1"/><line style="stroke:#a80036;stroke-width:1" x1="45.5" x2="331.5" y1="847.313" y2="847.313"/><text x="52.5" y="834.946" fill="#000" font-family="sans-serif" font-size="13" font-weight="bold" lengthAdjust="spacingAndGlyphs" textLength="18">21</text><text x="74.5" y="827.379" fill="#000" font-family="sans-serif" font-size="13" lengthAdjust="spacingAndGlyphs" textLength="190">Javascript initiated request for</text><text x="74.5" y="842.512" fill="#000" font-family="sans-serif" font-size="13" lengthAdjust="spacingAndGlyphs" textLength="126">protected resource.</text><polygon fill="#A80036" points="56.5 872.578 46.5 876.578 56.5 880.578 52.5 876.578" style="stroke:#a80036;stroke-width:1"/><line style="stroke:#a80036;stroke-width:1" x1="50.5" x2="336.5" y1="876.578" y2="876.578"/><text x="62.5" y="871.645" fill="#000" font-family="sans-serif" font-size="13" font-weight="bold" lengthAdjust="spacingAndGlyphs" textLength="18">22</text><text x="84.5" y="871.645" fill="#000" font-family="sans-serif" font-size="13" lengthAdjust="spacingAndGlyphs" textLength="172">Return protected resource.</text></g></svg>