<svg xmlns="http://www.w3.org/2000/svg" xmlns:xlink="http://www.w3.org/1999/xlink" width="1085" height="537" contentScriptType="application/ecmascript" contentStyleType="text/css" style="width:1085px;height:537px" preserveAspectRatio="none" version="1.1" viewBox="0 0 1085 537" zoomAndPan="magnify"><defs><filter id="fanmfvt" width="300%" height="300%" x="-1" y="-1"><feGaussianBlur result="blurOut" stdDeviation="2"/><feColorMatrix in="blurOut" result="blurOut2" type="matrix" values="0 0 0 0 0 0 0 0 0 0 0 0 0 0 0 0 0 0 .4 0"/><feOffset dx="4" dy="4" in="blurOut2" result="blurOut3"/><feBlend in="SourceGraphic" in2="blurOut3" mode="normal"/></filter></defs><g><text x="342.75" y="22.995" fill="#000" font-family="sans-serif" font-size="14" font-weight="bold" lengthAdjust="spacingAndGlyphs" textLength="403">OAuth 2.0 Authorization Server and OpenAM Client</text><line style="stroke:#a80036;stroke-width:1;stroke-dasharray:5,5" x1="75" x2="75" y1="84.891" y2="482.617"/><line style="stroke:#a80036;stroke-width:1;stroke-dasharray:5,5" x1="364.5" x2="364.5" y1="84.891" y2="482.617"/><line style="stroke:#a80036;stroke-width:1;stroke-dasharray:5,5" x1="722.5" x2="722.5" y1="84.891" y2="482.617"/><line style="stroke:#a80036;stroke-width:1;stroke-dasharray:5,5" x1="945.5" x2="945.5" y1="84.891" y2="482.617"/><rect style="stroke:#a80036;stroke-width:1.5" width="130" height="46.594" x="8" y="33.297" fill="#FEFECE" filter="url(#fanmfvt)"/><text x="15" y="53.292" fill="#000" font-family="sans-serif" font-size="14" lengthAdjust="spacingAndGlyphs" textLength="116">Resource Owner</text><text x="34" y="69.589" fill="#000" font-family="sans-serif" font-size="14" lengthAdjust="spacingAndGlyphs" textLength="78">User-Agent</text><rect style="stroke:#a80036;stroke-width:1.5" width="130" height="46.594" x="8" y="481.617" fill="#FEFECE" filter="url(#fanmfvt)"/><text x="15" y="501.612" fill="#000" font-family="sans-serif" font-size="14" lengthAdjust="spacingAndGlyphs" textLength="116">Resource Owner</text><text x="34" y="517.909" fill="#000" font-family="sans-serif" font-size="14" lengthAdjust="spacingAndGlyphs" textLength="78">User-Agent</text><rect style="stroke:#a80036;stroke-width:1.5" width="237" height="46.594" x="244.5" y="33.297" fill="#FEFECE" filter="url(#fanmfvt)"/><text x="343.5" y="53.292" fill="#000" font-family="sans-serif" font-size="14" lengthAdjust="spacingAndGlyphs" textLength="39">Client</text><text x="251.5" y="69.589" fill="#000" font-family="sans-serif" font-size="14" lengthAdjust="spacingAndGlyphs" textLength="223">OpenAM OAuth 2.0 Auth Module</text><rect style="stroke:#a80036;stroke-width:1.5" width="237" height="46.594" x="244.5" y="481.617" fill="#FEFECE" filter="url(#fanmfvt)"/><text x="343.5" y="501.612" fill="#000" font-family="sans-serif" font-size="14" lengthAdjust="spacingAndGlyphs" textLength="39">Client</text><text x="251.5" y="517.909" fill="#000" font-family="sans-serif" font-size="14" lengthAdjust="spacingAndGlyphs" textLength="223">OpenAM OAuth 2.0 Auth Module</text><rect style="stroke:#a80036;stroke-width:1.5" width="153" height="30.297" x="644.5" y="49.594" fill="#FEFECE" filter="url(#fanmfvt)"/><text x="651.5" y="69.589" fill="#000" font-family="sans-serif" font-size="14" lengthAdjust="spacingAndGlyphs" textLength="139">Authorization Server</text><rect style="stroke:#a80036;stroke-width:1.5" width="153" height="30.297" x="644.5" y="481.617" fill="#FEFECE" filter="url(#fanmfvt)"/><text x="651.5" y="501.612" fill="#000" font-family="sans-serif" font-size="14" lengthAdjust="spacingAndGlyphs" textLength="139">Authorization Server</text><rect style="stroke:#a80036;stroke-width:1.5" width="265" height="46.594" x="811.5" y="33.297" fill="#FEFECE" filter="url(#fanmfvt)"/><text x="886.5" y="53.292" fill="#000" font-family="sans-serif" font-size="14" lengthAdjust="spacingAndGlyphs" textLength="115">Resource Server</text><text x="818.5" y="69.589" fill="#000" font-family="sans-serif" font-size="14" lengthAdjust="spacingAndGlyphs" textLength="251">Protected with OpenAM Policy Agent</text><rect style="stroke:#a80036;stroke-width:1.5" width="265" height="46.594" x="811.5" y="481.617" fill="#FEFECE" filter="url(#fanmfvt)"/><text x="886.5" y="501.612" fill="#000" font-family="sans-serif" font-size="14" lengthAdjust="spacingAndGlyphs" textLength="115">Resource Server</text><text x="818.5" y="517.909" fill="#000" font-family="sans-serif" font-size="14" lengthAdjust="spacingAndGlyphs" textLength="251">Protected with OpenAM Policy Agent</text><polygon fill="#A80036" points="86 111.891 76 115.891 86 119.891 82 115.891" style="stroke:#a80036;stroke-width:1"/><line style="stroke:#a80036;stroke-width:1" x1="80" x2="364" y1="115.891" y2="115.891"/><text x="92" y="110.957" fill="#000" font-family="sans-serif" font-size="13" font-weight="bold" lengthAdjust="spacingAndGlyphs" textLength="9">1</text><text x="105" y="110.957" fill="#000" font-family="sans-serif" font-size="13" lengthAdjust="spacingAndGlyphs" textLength="64">Redirect...</text><polygon fill="#A80036" points="711 141.023 721 145.023 711 149.023 715 145.023" style="stroke:#a80036;stroke-width:1"/><line style="stroke:#a80036;stroke-width:1" x1="75" x2="717" y1="145.023" y2="145.023"/><text x="82" y="140.09" fill="#000" font-family="sans-serif" font-size="13" font-weight="bold" lengthAdjust="spacingAndGlyphs" textLength="9">2</text><text x="95" y="140.09" fill="#000" font-family="sans-serif" font-size="13" lengthAdjust="spacingAndGlyphs" textLength="283">...to OpenAM OAuth 2.0 authorization server</text><polygon fill="#A80036" points="86 170.156 76 174.156 86 178.156 82 174.156" style="stroke:#a80036;stroke-width:1"/><polygon fill="#A80036" points="711 170.156 721 174.156 711 178.156 715 174.156" style="stroke:#a80036;stroke-width:1"/><line style="stroke:#a80036;stroke-width:1" x1="80" x2="717" y1="174.156" y2="174.156"/><text x="92" y="169.223" fill="#000" font-family="sans-serif" font-size="13" font-weight="bold" lengthAdjust="spacingAndGlyphs" textLength="9">3</text><text x="105" y="169.223" fill="#000" font-family="sans-serif" font-size="13" lengthAdjust="spacingAndGlyphs" textLength="292">Authenticate, and confirm authorization grant</text><polygon fill="#A80036" points="86 199.289 76 203.289 86 207.289 82 203.289" style="stroke:#a80036;stroke-width:1"/><line style="stroke:#a80036;stroke-width:1" x1="80" x2="722" y1="203.289" y2="203.289"/><text x="92" y="198.356" fill="#000" font-family="sans-serif" font-size="13" font-weight="bold" lengthAdjust="spacingAndGlyphs" textLength="9">4</text><text x="105" y="198.356" fill="#000" font-family="sans-serif" font-size="13" lengthAdjust="spacingAndGlyphs" textLength="64">Redirect...</text><polygon fill="#A80036" points="353 228.422 363 232.422 353 236.422 357 232.422" style="stroke:#a80036;stroke-width:1"/><line style="stroke:#a80036;stroke-width:1" x1="75" x2="359" y1="232.422" y2="232.422"/><text x="82" y="227.489" fill="#000" font-family="sans-serif" font-size="13" font-weight="bold" lengthAdjust="spacingAndGlyphs" textLength="9">5</text><text x="95" y="227.489" fill="#000" font-family="sans-serif" font-size="13" lengthAdjust="spacingAndGlyphs" textLength="253">...with authorization code to redirect_uri</text><polygon fill="#A80036" points="711 272.555 721 276.555 711 280.555 715 276.555" style="stroke:#a80036;stroke-width:1"/><line style="stroke:#a80036;stroke-width:1" x1="365" x2="717" y1="276.555" y2="276.555"/><text x="372" y="264.188" fill="#000" font-family="sans-serif" font-size="13" font-weight="bold" lengthAdjust="spacingAndGlyphs" textLength="9">6</text><text x="385" y="256.622" fill="#000" font-family="sans-serif" font-size="13" lengthAdjust="spacingAndGlyphs" textLength="256">Authenticate, request access token with</text><text x="385" y="271.754" fill="#000" font-family="sans-serif" font-size="13" lengthAdjust="spacingAndGlyphs" textLength="199">authorization code, redirect_uri</text><polygon fill="#A80036" points="376 301.82 366 305.82 376 309.82 372 305.82" style="stroke:#a80036;stroke-width:1"/><line style="stroke:#a80036;stroke-width:1" x1="370" x2="722" y1="305.82" y2="305.82"/><text x="382" y="300.887" fill="#000" font-family="sans-serif" font-size="13" font-weight="bold" lengthAdjust="spacingAndGlyphs" textLength="9">7</text><text x="395" y="300.887" fill="#000" font-family="sans-serif" font-size="13" lengthAdjust="spacingAndGlyphs" textLength="312">If authorization code is valid, return access token</text><polygon fill="#A80036" points="711 330.953 721 334.953 711 338.953 715 334.953" style="stroke:#a80036;stroke-width:1"/><line style="stroke:#a80036;stroke-width:1" x1="365" x2="717" y1="334.953" y2="334.953"/><text x="372" y="330.02" fill="#000" font-family="sans-serif" font-size="13" font-weight="bold" lengthAdjust="spacingAndGlyphs" textLength="9">8</text><text x="385" y="330.02" fill="#000" font-family="sans-serif" font-size="13" lengthAdjust="spacingAndGlyphs" textLength="321">Request user profile information with access token</text><line style="stroke:#a80036;stroke-width:1" x1="365" x2="407" y1="364.219" y2="364.219"/><line style="stroke:#a80036;stroke-width:1" x1="407" x2="407" y1="364.219" y2="377.219"/><line style="stroke:#a80036;stroke-width:1" x1="366" x2="407" y1="377.219" y2="377.219"/><polygon fill="#A80036" points="376 373.219 366 377.219 376 381.219 372 377.219" style="stroke:#a80036;stroke-width:1"/><text x="372" y="359.153" fill="#000" font-family="sans-serif" font-size="13" font-weight="bold" lengthAdjust="spacingAndGlyphs" textLength="9">9</text><text x="385" y="359.153" fill="#000" font-family="sans-serif" font-size="13" lengthAdjust="spacingAndGlyphs" textLength="248">If configured, map user to local identity</text><polygon fill="#A80036" points="86 402.219 76 406.219 86 410.219 82 406.219" style="stroke:#a80036;stroke-width:1"/><line style="stroke:#a80036;stroke-width:1" x1="80" x2="364" y1="406.219" y2="406.219"/><text x="92" y="401.286" fill="#000" font-family="sans-serif" font-size="13" font-weight="bold" lengthAdjust="spacingAndGlyphs" textLength="18">10</text><text x="114" y="401.286" fill="#000" font-family="sans-serif" font-size="13" lengthAdjust="spacingAndGlyphs" textLength="64">Redirect...</text><polygon fill="#A80036" points="934 431.352 944 435.352 934 439.352 938 435.352" style="stroke:#a80036;stroke-width:1"/><line style="stroke:#a80036;stroke-width:1" x1="75" x2="940" y1="435.352" y2="435.352"/><text x="82" y="430.418" fill="#000" font-family="sans-serif" font-size="13" font-weight="bold" lengthAdjust="spacingAndGlyphs" textLength="18">11</text><text x="104" y="430.418" fill="#000" font-family="sans-serif" font-size="13" lengthAdjust="spacingAndGlyphs" textLength="252">...with SSO token to protected resource</text><polygon fill="#A80036" points="376 460.484 366 464.484 376 468.484 372 464.484" style="stroke:#a80036;stroke-width:1"/><line style="stroke:#a80036;stroke-width:1" x1="370" x2="945" y1="464.484" y2="464.484"/><text x="382" y="459.551" fill="#000" font-family="sans-serif" font-size="13" font-weight="bold" lengthAdjust="spacingAndGlyphs" textLength="18">12</text><text x="404" y="459.551" fill="#000" font-family="sans-serif" font-size="13" lengthAdjust="spacingAndGlyphs" textLength="408">If authorized by OpenAM (not shown), return protected resource</text></g></svg>