<svg xmlns="http://www.w3.org/2000/svg" xmlns:xlink="http://www.w3.org/1999/xlink" width="551" height="479" contentScriptType="application/ecmascript" contentStyleType="text/css" style="width:551px;height:479px" preserveAspectRatio="none" version="1.1" viewBox="0 0 551 479" zoomAndPan="magnify"><defs><filter id="fj95rvl" width="300%" height="300%" x="-1" y="-1"><feGaussianBlur result="blurOut" stdDeviation="2"/><feColorMatrix in="blurOut" result="blurOut2" type="matrix" values="0 0 0 0 0 0 0 0 0 0 0 0 0 0 0 0 0 0 .4 0"/><feOffset dx="4" dy="4" in="blurOut2" result="blurOut3"/><feBlend in="SourceGraphic" in2="blurOut3" mode="normal"/></filter></defs><g><rect style="stroke:#a80036;stroke-width:1" width="10" height="152.664" x="333.5" y="308.125" fill="#FBB" filter="url(#fj95rvl)"/><rect style="stroke:#a80036;stroke-width:1" width="10" height="58.266" x="338.5" y="373.391" fill="#E9967A" filter="url(#fj95rvl)"/><text x="510.5" y="249.69" fill="#000" font-family="sans-serif" font-size="14" lengthAdjust="spacingAndGlyphs" textLength="32">User</text><ellipse cx="529.5" cy="179.695" fill="#FEFECE" filter="url(#fj95rvl)" rx="8" ry="8" style="stroke:#a80036;stroke-width:2"/><path fill="#FEFECE" d="M529.5,187.6953 L529.5,214.6953 M516.5,195.6953 L542.5,195.6953 M529.5,214.6953 L516.5,229.6953 M529.5,214.6953 L542.5,229.6953" filter="url(#fj95rvl)" style="stroke:#a80036;stroke-width:2"/><rect style="stroke:#000;stroke-width:2" width="414" height="75.398" x="13" y="269.992" fill="#FFF" filter="url(#fj95rvl)"/><line style="stroke:#a80036;stroke-width:1;stroke-dasharray:5,5" x1="55" x2="55" y1="86.297" y2="478.922"/><line style="stroke:#a80036;stroke-width:1;stroke-dasharray:5,5" x1="338" x2="338" y1="86.297" y2="478.922"/><line style="stroke:#a80036;stroke-width:1;stroke-dasharray:5,5" x1="529.5" x2="529.5" y1="226.344" y2="478.922"/><rect style="stroke:#a80036;stroke-width:1.5" width="61" height="46.594" x="23" y="34.703" fill="#FEFECE" filter="url(#fj95rvl)"/><text x="34" y="54.698" fill="#000" font-family="sans-serif" font-size="14" lengthAdjust="spacingAndGlyphs" textLength="39">Client</text><text x="30" y="70.995" fill="#000" font-family="sans-serif" font-size="14" lengthAdjust="spacingAndGlyphs" textLength="47">Device</text><rect style="stroke:#a80036;stroke-width:1.5" width="153" height="46.594" x="260" y="34.703" fill="#FEFECE" filter="url(#fj95rvl)"/><text x="307" y="54.698" fill="#000" font-family="sans-serif" font-size="14" lengthAdjust="spacingAndGlyphs" textLength="59">OpenAM</text><text x="267" y="70.995" fill="#000" font-family="sans-serif" font-size="14" lengthAdjust="spacingAndGlyphs" textLength="139">Authorization Server</text><rect style="stroke:#a80036;stroke-width:1" width="10" height="152.664" x="333.5" y="308.125" fill="#FBB" filter="url(#fj95rvl)"/><rect style="stroke:#a80036;stroke-width:1" width="10" height="58.266" x="338.5" y="373.391" fill="#E9967A" filter="url(#fj95rvl)"/><polygon fill="#A80036" points="326.5 113.297 336.5 117.297 326.5 121.297 330.5 117.297" style="stroke:#a80036;stroke-width:1"/><line style="stroke:#a80036;stroke-width:1" x1="55.5" x2="332.5" y1="117.297" y2="117.297"/><text x="62.5" y="112.364" fill="#000" font-family="sans-serif" font-size="13" font-weight="bold" lengthAdjust="spacingAndGlyphs" textLength="14">1.</text><text x="80.5" y="112.364" fill="#000" font-family="sans-serif" font-size="13" lengthAdjust="spacingAndGlyphs" textLength="52">Request</text><text x="136.5" y="112.364" fill="#000" font-family="sans-serif" font-size="13" font-style="italic" lengthAdjust="spacingAndGlyphs" textLength="42">device</text><text x="182.5" y="112.364" fill="#000" font-family="sans-serif" font-size="13" lengthAdjust="spacingAndGlyphs" textLength="31">code</text><polygon fill="#A80036" points="66.5 157.43 56.5 161.43 66.5 165.43 62.5 161.43" style="stroke:#a80036;stroke-width:1"/><line style="stroke:#a80036;stroke-width:1" x1="60.5" x2="337.5" y1="161.43" y2="161.43"/><text x="72.5" y="149.063" fill="#000" font-family="sans-serif" font-size="13" font-weight="bold" lengthAdjust="spacingAndGlyphs" textLength="14">2.</text><text x="90.5" y="141.497" fill="#000" font-family="sans-serif" font-size="13" lengthAdjust="spacingAndGlyphs" textLength="42">Return</text><text x="136.5" y="141.497" fill="#000" font-family="sans-serif" font-size="13" font-style="italic" lengthAdjust="spacingAndGlyphs" textLength="42">device</text><text x="182.5" y="141.497" fill="#000" font-family="sans-serif" font-size="13" lengthAdjust="spacingAndGlyphs" textLength="35">code,</text><text x="221.5" y="141.497" fill="#000" font-family="sans-serif" font-size="13" font-style="italic" lengthAdjust="spacingAndGlyphs" textLength="28">user</text><text x="253.5" y="141.497" fill="#000" font-family="sans-serif" font-size="13" lengthAdjust="spacingAndGlyphs" textLength="68">code, URL,</text><text x="90.5" y="156.629" fill="#000" font-family="sans-serif" font-size="13" lengthAdjust="spacingAndGlyphs" textLength="75">and interval</text><polygon fill="#A80036" points="498.5 186.695 508.5 190.695 498.5 194.695 502.5 190.695" style="stroke:#a80036;stroke-width:1"/><line style="stroke:#a80036;stroke-width:1;stroke-dasharray:2,2" x1="55.5" x2="504.5" y1="190.695" y2="190.695"/><text x="62.5" y="185.762" fill="#000" font-family="sans-serif" font-size="13" font-weight="bold" lengthAdjust="spacingAndGlyphs" textLength="14">3.</text><text x="80.5" y="185.762" fill="#000" font-family="sans-serif" font-size="13" lengthAdjust="spacingAndGlyphs" textLength="47">Provide</text><text x="131.5" y="185.762" fill="#000" font-family="sans-serif" font-size="13" font-style="italic" lengthAdjust="spacingAndGlyphs" textLength="28">user</text><text x="163.5" y="185.762" fill="#000" font-family="sans-serif" font-size="13" lengthAdjust="spacingAndGlyphs" textLength="80">code to user</text><text x="510.5" y="249.69" fill="#000" font-family="sans-serif" font-size="14" lengthAdjust="spacingAndGlyphs" textLength="32">User</text><ellipse cx="529.5" cy="179.695" fill="#FEFECE" filter="url(#fj95rvl)" rx="8" ry="8" style="stroke:#a80036;stroke-width:2"/><path fill="#FEFECE" d="M529.5,187.6953 L529.5,214.6953 M516.5,195.6953 L542.5,195.6953 M529.5,214.6953 L516.5,229.6953 M529.5,214.6953 L542.5,229.6953" filter="url(#fj95rvl)" style="stroke:#a80036;stroke-width:2"/><rect style="stroke:#000;stroke-width:2" width="414" height="75.398" x="13" y="269.992" fill="none"/><polygon fill="#EEE" points="13 269.992 90 269.992 90 276.992 80 286.992 13 286.992 13 269.992" style="stroke:#000;stroke-width:2"/><text x="28" y="283.059" fill="#000" font-family="sans-serif" font-size="13" font-weight="bold" lengthAdjust="spacingAndGlyphs" textLength="32">loop</text><text x="105" y="282.203" fill="#000" font-family="sans-serif" font-size="11" font-weight="bold" lengthAdjust="spacingAndGlyphs" textLength="94">[Each Interval]</text><line style="stroke:orange;stroke-width:1" x1="331.5" x2="321.5" y1="308.125" y2="304.125"/><line style="stroke:orange;stroke-width:1" x1="331.5" x2="321.5" y1="308.125" y2="312.125"/><line style="stroke:orange;stroke-width:1;stroke-dasharray:2,2" x1="55.5" x2="332.5" y1="308.125" y2="308.125"/><text x="62.5" y="303.192" fill="#000" font-family="sans-serif" font-size="13" font-weight="bold" lengthAdjust="spacingAndGlyphs" textLength="14">4.</text><text x="80.5" y="303.192" fill="#000" font-family="sans-serif" font-size="13" lengthAdjust="spacingAndGlyphs" textLength="160">Poll for authorization with</text><text x="244.5" y="303.192" fill="#000" font-family="sans-serif" font-size="13" font-style="italic" lengthAdjust="spacingAndGlyphs" textLength="42">device</text><text x="290.5" y="303.192" fill="#000" font-family="sans-serif" font-size="13" lengthAdjust="spacingAndGlyphs" textLength="31">code</text><line style="stroke:#a80036;stroke-width:1" x1="55.5" x2="65.5" y1="337.258" y2="333.258"/><line style="stroke:#a80036;stroke-width:1" x1="55.5" x2="65.5" y1="337.258" y2="341.258"/><line style="stroke:#a80036;stroke-width:1" x1="55.5" x2="332.5" y1="337.258" y2="337.258"/><text x="72.5" y="332.325" fill="#000" font-family="sans-serif" font-size="13" font-weight="bold" lengthAdjust="spacingAndGlyphs" textLength="14">5.</text><text x="90.5" y="332.325" fill="#000" font-family="sans-serif" font-size="13" lengthAdjust="spacingAndGlyphs" textLength="226">Return [403] authorization_pending</text><polygon fill="#A80036" points="359.5 369.391 349.5 373.391 359.5 377.391 355.5 373.391" style="stroke:#a80036;stroke-width:1"/><line style="stroke:#a80036;stroke-width:1" x1="353.5" x2="528.5" y1="373.391" y2="373.391"/><text x="365.5" y="368.457" fill="#000" font-family="sans-serif" font-size="13" font-weight="bold" lengthAdjust="spacingAndGlyphs" textLength="14">6.</text><text x="383.5" y="368.457" fill="#000" font-family="sans-serif" font-size="13" lengthAdjust="spacingAndGlyphs" textLength="34">Enter</text><text x="421.5" y="368.457" fill="#000" font-family="sans-serif" font-size="13" font-style="italic" lengthAdjust="spacingAndGlyphs" textLength="28">user</text><text x="453.5" y="368.457" fill="#000" font-family="sans-serif" font-size="13" lengthAdjust="spacingAndGlyphs" textLength="31">code</text><polygon fill="#A80036" points="359.5 398.523 349.5 402.523 359.5 406.523 355.5 402.523" style="stroke:#a80036;stroke-width:1"/><line style="stroke:#a80036;stroke-width:1" x1="353.5" x2="528.5" y1="402.523" y2="402.523"/><text x="365.5" y="397.59" fill="#000" font-family="sans-serif" font-size="13" font-weight="bold" lengthAdjust="spacingAndGlyphs" textLength="14">7.</text><text x="383.5" y="397.59" fill="#000" font-family="sans-serif" font-size="13" lengthAdjust="spacingAndGlyphs" textLength="82">Authenticate</text><polygon fill="#A80036" points="354.5 427.656 344.5 431.656 354.5 435.656 350.5 431.656" style="stroke:#a80036;stroke-width:1"/><line style="stroke:#a80036;stroke-width:1" x1="348.5" x2="528.5" y1="431.656" y2="431.656"/><text x="360.5" y="426.723" fill="#000" font-family="sans-serif" font-size="13" font-weight="bold" lengthAdjust="spacingAndGlyphs" textLength="14">8.</text><text x="378.5" y="426.723" fill="#000" font-family="sans-serif" font-size="13" lengthAdjust="spacingAndGlyphs" textLength="139">Approve client access</text><polygon fill="#006400" points="66.5 456.789 56.5 460.789 66.5 464.789 62.5 460.789" style="stroke:#006400;stroke-width:1"/><line style="stroke:#006400;stroke-width:1" x1="60.5" x2="337.5" y1="460.789" y2="460.789"/><text x="72.5" y="455.856" fill="#000" font-family="sans-serif" font-size="13" font-weight="bold" lengthAdjust="spacingAndGlyphs" textLength="14">9.</text><text x="90.5" y="455.856" fill="#000" font-family="sans-serif" font-size="13" lengthAdjust="spacingAndGlyphs" textLength="171">Return [200] access_token</text></g></svg>