<svg xmlns="http://www.w3.org/2000/svg" xmlns:xlink="http://www.w3.org/1999/xlink" width="930" height="537" contentScriptType="application/ecmascript" contentStyleType="text/css" style="width:930px;height:537px" preserveAspectRatio="none" version="1.1" viewBox="0 0 930 537" zoomAndPan="magnify"><defs><filter id="f1boj2h" width="300%" height="300%" x="-1" y="-1"><feGaussianBlur result="blurOut" stdDeviation="2"/><feColorMatrix in="blurOut" result="blurOut2" type="matrix" values="0 0 0 0 0 0 0 0 0 0 0 0 0 0 0 0 0 0 .4 0"/><feOffset dx="4" dy="4" in="blurOut2" result="blurOut3"/><feBlend in="SourceGraphic" in2="blurOut3" mode="normal"/></filter></defs><g><text x="372.75" y="22.995" fill="#000" font-family="sans-serif" font-size="14" font-weight="bold" lengthAdjust="spacingAndGlyphs" textLength="188">OAuth 2.0 Implicit Grant</text><line style="stroke:#a80036;stroke-width:1;stroke-dasharray:5,5" x1="75" x2="75" y1="84.891" y2="482.617"/><line style="stroke:#a80036;stroke-width:1;stroke-dasharray:5,5" x1="349.5" x2="349.5" y1="84.891" y2="482.617"/><line style="stroke:#a80036;stroke-width:1;stroke-dasharray:5,5" x1="475.5" x2="475.5" y1="84.891" y2="482.617"/><line style="stroke:#a80036;stroke-width:1;stroke-dasharray:5,5" x1="673.5" x2="673.5" y1="84.891" y2="482.617"/><line style="stroke:#a80036;stroke-width:1;stroke-dasharray:5,5" x1="858.5" x2="858.5" y1="84.891" y2="482.617"/><rect style="stroke:#a80036;stroke-width:1.5" width="130" height="46.594" x="8" y="33.297" fill="#FEFECE" filter="url(#f1boj2h)"/><text x="15" y="53.292" fill="#000" font-family="sans-serif" font-size="14" lengthAdjust="spacingAndGlyphs" textLength="116">Resource Owner</text><text x="34" y="69.589" fill="#000" font-family="sans-serif" font-size="14" lengthAdjust="spacingAndGlyphs" textLength="78">User-Agent</text><rect style="stroke:#a80036;stroke-width:1.5" width="130" height="46.594" x="8" y="481.617" fill="#FEFECE" filter="url(#f1boj2h)"/><text x="15" y="501.612" fill="#000" font-family="sans-serif" font-size="14" lengthAdjust="spacingAndGlyphs" textLength="116">Resource Owner</text><text x="34" y="517.909" fill="#000" font-family="sans-serif" font-size="14" lengthAdjust="spacingAndGlyphs" textLength="78">User-Agent</text><rect style="stroke:#a80036;stroke-width:1.5" width="53" height="30.297" x="321.5" y="49.594" fill="#FEFECE" filter="url(#f1boj2h)"/><text x="328.5" y="69.589" fill="#000" font-family="sans-serif" font-size="14" lengthAdjust="spacingAndGlyphs" textLength="39">Client</text><rect style="stroke:#a80036;stroke-width:1.5" width="53" height="30.297" x="321.5" y="481.617" fill="#FEFECE" filter="url(#f1boj2h)"/><text x="328.5" y="501.612" fill="#000" font-family="sans-serif" font-size="14" lengthAdjust="spacingAndGlyphs" textLength="39">Client</text><rect style="stroke:#a80036;stroke-width:1.5" width="153" height="46.594" x="397.5" y="33.297" fill="#FEFECE" filter="url(#f1boj2h)"/><text x="444.5" y="53.292" fill="#000" font-family="sans-serif" font-size="14" lengthAdjust="spacingAndGlyphs" textLength="59">OpenAM</text><text x="404.5" y="69.589" fill="#000" font-family="sans-serif" font-size="14" lengthAdjust="spacingAndGlyphs" textLength="139">Authorization Server</text><rect style="stroke:#a80036;stroke-width:1.5" width="153" height="46.594" x="397.5" y="481.617" fill="#FEFECE" filter="url(#f1boj2h)"/><text x="444.5" y="501.612" fill="#000" font-family="sans-serif" font-size="14" lengthAdjust="spacingAndGlyphs" textLength="59">OpenAM</text><text x="404.5" y="517.909" fill="#000" font-family="sans-serif" font-size="14" lengthAdjust="spacingAndGlyphs" textLength="139">Authorization Server</text><rect style="stroke:#a80036;stroke-width:1.5" width="214" height="30.297" x="564.5" y="49.594" fill="#FEFECE" filter="url(#f1boj2h)"/><text x="571.5" y="69.589" fill="#000" font-family="sans-serif" font-size="14" lengthAdjust="spacingAndGlyphs" textLength="200">Web-Hosted Client Resource</text><rect style="stroke:#a80036;stroke-width:1.5" width="214" height="30.297" x="564.5" y="481.617" fill="#FEFECE" filter="url(#f1boj2h)"/><text x="571.5" y="501.612" fill="#000" font-family="sans-serif" font-size="14" lengthAdjust="spacingAndGlyphs" textLength="200">Web-Hosted Client Resource</text><rect style="stroke:#a80036;stroke-width:1.5" width="129" height="30.297" x="792.5" y="49.594" fill="#FEFECE" filter="url(#f1boj2h)"/><text x="799.5" y="69.589" fill="#000" font-family="sans-serif" font-size="14" lengthAdjust="spacingAndGlyphs" textLength="115">Resource Server</text><rect style="stroke:#a80036;stroke-width:1.5" width="129" height="30.297" x="792.5" y="481.617" fill="#FEFECE" filter="url(#f1boj2h)"/><text x="799.5" y="501.612" fill="#000" font-family="sans-serif" font-size="14" lengthAdjust="spacingAndGlyphs" textLength="115">Resource Server</text><polygon fill="#A80036" points="86 111.891 76 115.891 86 119.891 82 115.891" style="stroke:#a80036;stroke-width:1"/><line style="stroke:#a80036;stroke-width:1" x1="80" x2="349" y1="115.891" y2="115.891"/><text x="92" y="110.957" fill="#000" font-family="sans-serif" font-size="13" font-weight="bold" lengthAdjust="spacingAndGlyphs" textLength="9">1</text><text x="105" y="110.957" fill="#000" font-family="sans-serif" font-size="13" lengthAdjust="spacingAndGlyphs" textLength="64">Redirect...</text><polygon fill="#A80036" points="464 141.023 474 145.023 464 149.023 468 145.023" style="stroke:#a80036;stroke-width:1"/><line style="stroke:#a80036;stroke-width:1" x1="75" x2="470" y1="145.023" y2="145.023"/><text x="82" y="140.09" fill="#000" font-family="sans-serif" font-size="13" font-weight="bold" lengthAdjust="spacingAndGlyphs" textLength="9">2</text><text x="95" y="140.09" fill="#000" font-family="sans-serif" font-size="13" lengthAdjust="spacingAndGlyphs" textLength="260">...with client_id, scope, state, redirect_uri</text><polygon fill="#A80036" points="86 185.156 76 189.156 86 193.156 82 189.156" style="stroke:#a80036;stroke-width:1"/><polygon fill="#A80036" points="464 185.156 474 189.156 464 193.156 468 189.156" style="stroke:#a80036;stroke-width:1"/><line style="stroke:#a80036;stroke-width:1" x1="80" x2="470" y1="189.156" y2="189.156"/><text x="92" y="176.79" fill="#000" font-family="sans-serif" font-size="13" font-weight="bold" lengthAdjust="spacingAndGlyphs" textLength="9">3</text><text x="105" y="169.223" fill="#000" font-family="sans-serif" font-size="13" lengthAdjust="spacingAndGlyphs" textLength="212">Authenticate resource owner and</text><text x="105" y="184.356" fill="#000" font-family="sans-serif" font-size="13" lengthAdjust="spacingAndGlyphs" textLength="156">confirm resource access</text><polygon fill="#A80036" points="86 214.422 76 218.422 86 222.422 82 218.422" style="stroke:#a80036;stroke-width:1"/><line style="stroke:#a80036;stroke-width:1" x1="80" x2="475" y1="218.422" y2="218.422"/><text x="92" y="213.489" fill="#000" font-family="sans-serif" font-size="13" font-weight="bold" lengthAdjust="spacingAndGlyphs" textLength="9">4</text><text x="105" y="213.489" fill="#000" font-family="sans-serif" font-size="13" lengthAdjust="spacingAndGlyphs" textLength="364">Redirect with redirect_uri, access token in URI fragment...</text><polygon fill="#A80036" points="661.5 243.555 671.5 247.555 661.5 251.555 665.5 247.555" style="stroke:#a80036;stroke-width:1"/><line style="stroke:#a80036;stroke-width:1" x1="75" x2="667.5" y1="247.555" y2="247.555"/><text x="82" y="242.622" fill="#000" font-family="sans-serif" font-size="13" font-weight="bold" lengthAdjust="spacingAndGlyphs" textLength="9">5</text><text x="95" y="242.622" fill="#000" font-family="sans-serif" font-size="13" lengthAdjust="spacingAndGlyphs" textLength="292">...to request redirect_uri without the fragment</text><polygon fill="#A80036" points="86 272.688 76 276.688 86 280.688 82 276.688" style="stroke:#a80036;stroke-width:1"/><line style="stroke:#a80036;stroke-width:1" x1="80" x2="672.5" y1="276.688" y2="276.688"/><text x="92" y="271.754" fill="#000" font-family="sans-serif" font-size="13" font-weight="bold" lengthAdjust="spacingAndGlyphs" textLength="9">6</text><text x="105" y="271.754" fill="#000" font-family="sans-serif" font-size="13" lengthAdjust="spacingAndGlyphs" textLength="402">Return web page with embedded script to extract access token</text><line style="stroke:#a80036;stroke-width:1" x1="75" x2="117" y1="305.953" y2="305.953"/><line style="stroke:#a80036;stroke-width:1" x1="117" x2="117" y1="305.953" y2="318.953"/><line style="stroke:#a80036;stroke-width:1" x1="76" x2="117" y1="318.953" y2="318.953"/><polygon fill="#A80036" points="86 314.953 76 318.953 86 322.953 82 318.953" style="stroke:#a80036;stroke-width:1"/><text x="82" y="300.887" fill="#000" font-family="sans-serif" font-size="13" font-weight="bold" lengthAdjust="spacingAndGlyphs" textLength="9">7</text><text x="95" y="300.887" fill="#000" font-family="sans-serif" font-size="13" lengthAdjust="spacingAndGlyphs" textLength="248">Execute script to retrieve access token</text><polygon fill="#A80036" points="338 343.953 348 347.953 338 351.953 342 347.953" style="stroke:#a80036;stroke-width:1"/><line style="stroke:#a80036;stroke-width:1" x1="75" x2="344" y1="347.953" y2="347.953"/><text x="82" y="343.02" fill="#000" font-family="sans-serif" font-size="13" font-weight="bold" lengthAdjust="spacingAndGlyphs" textLength="9">8</text><text x="95" y="343.02" fill="#000" font-family="sans-serif" font-size="13" lengthAdjust="spacingAndGlyphs" textLength="130">Return access token</text><polygon fill="#A80036" points="847 373.086 857 377.086 847 381.086 851 377.086" style="stroke:#a80036;stroke-width:1"/><line style="stroke:#a80036;stroke-width:1" x1="350" x2="853" y1="377.086" y2="377.086"/><text x="357" y="372.153" fill="#000" font-family="sans-serif" font-size="13" font-weight="bold" lengthAdjust="spacingAndGlyphs" textLength="9">9</text><text x="370" y="372.153" fill="#000" font-family="sans-serif" font-size="13" lengthAdjust="spacingAndGlyphs" textLength="229">Request resource with access token</text><polygon fill="#A80036" points="487 402.219 477 406.219 487 410.219 483 406.219" style="stroke:#a80036;stroke-width:1"/><line style="stroke:#a80036;stroke-width:1" x1="481" x2="858" y1="406.219" y2="406.219"/><text x="493" y="401.286" fill="#000" font-family="sans-serif" font-size="13" font-weight="bold" lengthAdjust="spacingAndGlyphs" textLength="18">10</text><text x="515" y="401.286" fill="#000" font-family="sans-serif" font-size="13" lengthAdjust="spacingAndGlyphs" textLength="310">Request access token validation and information</text><polygon fill="#A80036" points="847 431.352 857 435.352 847 439.352 851 435.352" style="stroke:#a80036;stroke-width:1"/><line style="stroke:#a80036;stroke-width:1" x1="476" x2="853" y1="435.352" y2="435.352"/><text x="483" y="430.418" fill="#000" font-family="sans-serif" font-size="13" font-weight="bold" lengthAdjust="spacingAndGlyphs" textLength="18">11</text><text x="505" y="430.418" fill="#000" font-family="sans-serif" font-size="13" lengthAdjust="spacingAndGlyphs" textLength="308">If access token is valid, respond with information</text><polygon fill="#A80036" points="361 460.484 351 464.484 361 468.484 357 464.484" style="stroke:#a80036;stroke-width:1"/><line style="stroke:#a80036;stroke-width:1" x1="355" x2="858" y1="464.484" y2="464.484"/><text x="367" y="459.551" fill="#000" font-family="sans-serif" font-size="13" font-weight="bold" lengthAdjust="spacingAndGlyphs" textLength="18">12</text><text x="389" y="459.551" fill="#000" font-family="sans-serif" font-size="13" lengthAdjust="spacingAndGlyphs" textLength="315">If access token is valid, return protected resource</text></g></svg>