<svg xmlns="http://www.w3.org/2000/svg" xmlns:xlink="http://www.w3.org/1999/xlink" width="1180" height="510" contentScriptType="application/ecmascript" contentStyleType="text/css" style="width:1180px;height:510px" preserveAspectRatio="none" version="1.1" viewBox="0 0 1180 510" zoomAndPan="magnify"><defs><filter id="fpeuali" width="300%" height="300%" x="-1" y="-1"><feGaussianBlur result="blurOut" stdDeviation="2"/><feColorMatrix in="blurOut" result="blurOut2" type="matrix" values="0 0 0 0 0 0 0 0 0 0 0 0 0 0 0 0 0 0 .4 0"/><feOffset dx="4" dy="4" in="blurOut2" result="blurOut3"/><feBlend in="SourceGraphic" in2="blurOut3" mode="normal"/></filter></defs><g><text x="449.25" y="22.995" fill="#000" font-family="sans-serif" font-size="14" font-weight="bold" lengthAdjust="spacingAndGlyphs" textLength="285">OAuth 2.0 Authorization Code Grant</text><line style="stroke:#a80036;stroke-width:1;stroke-dasharray:5,5" x1="75" x2="75" y1="84.891" y2="455.617"/><line style="stroke:#a80036;stroke-width:1;stroke-dasharray:5,5" x1="405.5" x2="405.5" y1="84.891" y2="455.617"/><line style="stroke:#a80036;stroke-width:1;stroke-dasharray:5,5" x1="754.5" x2="754.5" y1="84.891" y2="455.617"/><line style="stroke:#a80036;stroke-width:1;stroke-dasharray:5,5" x1="1108.5" x2="1108.5" y1="84.891" y2="455.617"/><rect style="stroke:#a80036;stroke-width:1.5" width="130" height="46.594" x="8" y="33.297" fill="#FEFECE" filter="url(#fpeuali)"/><text x="15" y="53.292" fill="#000" font-family="sans-serif" font-size="14" lengthAdjust="spacingAndGlyphs" textLength="116">Resource Owner</text><text x="34" y="69.589" fill="#000" font-family="sans-serif" font-size="14" lengthAdjust="spacingAndGlyphs" textLength="78">User-Agent</text><rect style="stroke:#a80036;stroke-width:1.5" width="130" height="46.594" x="8" y="454.617" fill="#FEFECE" filter="url(#fpeuali)"/><text x="15" y="474.612" fill="#000" font-family="sans-serif" font-size="14" lengthAdjust="spacingAndGlyphs" textLength="116">Resource Owner</text><text x="34" y="490.909" fill="#000" font-family="sans-serif" font-size="14" lengthAdjust="spacingAndGlyphs" textLength="78">User-Agent</text><rect style="stroke:#a80036;stroke-width:1.5" width="53" height="30.297" x="377.5" y="49.594" fill="#FEFECE" filter="url(#fpeuali)"/><text x="384.5" y="69.589" fill="#000" font-family="sans-serif" font-size="14" lengthAdjust="spacingAndGlyphs" textLength="39">Client</text><rect style="stroke:#a80036;stroke-width:1.5" width="53" height="30.297" x="377.5" y="454.617" fill="#FEFECE" filter="url(#fpeuali)"/><text x="384.5" y="474.612" fill="#000" font-family="sans-serif" font-size="14" lengthAdjust="spacingAndGlyphs" textLength="39">Client</text><rect style="stroke:#a80036;stroke-width:1.5" width="153" height="46.594" x="676.5" y="33.297" fill="#FEFECE" filter="url(#fpeuali)"/><text x="723.5" y="53.292" fill="#000" font-family="sans-serif" font-size="14" lengthAdjust="spacingAndGlyphs" textLength="59">OpenAM</text><text x="683.5" y="69.589" fill="#000" font-family="sans-serif" font-size="14" lengthAdjust="spacingAndGlyphs" textLength="139">Authorization Server</text><rect style="stroke:#a80036;stroke-width:1.5" width="153" height="46.594" x="676.5" y="454.617" fill="#FEFECE" filter="url(#fpeuali)"/><text x="723.5" y="474.612" fill="#000" font-family="sans-serif" font-size="14" lengthAdjust="spacingAndGlyphs" textLength="59">OpenAM</text><text x="683.5" y="490.909" fill="#000" font-family="sans-serif" font-size="14" lengthAdjust="spacingAndGlyphs" textLength="139">Authorization Server</text><rect style="stroke:#a80036;stroke-width:1.5" width="129" height="30.297" x="1042.5" y="49.594" fill="#FEFECE" filter="url(#fpeuali)"/><text x="1049.5" y="69.589" fill="#000" font-family="sans-serif" font-size="14" lengthAdjust="spacingAndGlyphs" textLength="115">Resource Server</text><rect style="stroke:#a80036;stroke-width:1.5" width="129" height="30.297" x="1042.5" y="454.617" fill="#FEFECE" filter="url(#fpeuali)"/><text x="1049.5" y="474.612" fill="#000" font-family="sans-serif" font-size="14" lengthAdjust="spacingAndGlyphs" textLength="115">Resource Server</text><polygon fill="#A80036" points="86 111.891 76 115.891 86 119.891 82 115.891" style="stroke:#a80036;stroke-width:1"/><line style="stroke:#a80036;stroke-width:1" x1="80" x2="405" y1="115.891" y2="115.891"/><text x="92" y="110.957" fill="#000" font-family="sans-serif" font-size="13" font-weight="bold" lengthAdjust="spacingAndGlyphs" textLength="9">1</text><text x="105" y="110.957" fill="#000" font-family="sans-serif" font-size="13" lengthAdjust="spacingAndGlyphs" textLength="64">Redirect...</text><polygon fill="#A80036" points="743 141.023 753 145.023 743 149.023 747 145.023" style="stroke:#a80036;stroke-width:1"/><line style="stroke:#a80036;stroke-width:1" x1="75" x2="749" y1="145.023" y2="145.023"/><text x="82" y="140.09" fill="#000" font-family="sans-serif" font-size="13" font-weight="bold" lengthAdjust="spacingAndGlyphs" textLength="9">2</text><text x="95" y="140.09" fill="#000" font-family="sans-serif" font-size="13" lengthAdjust="spacingAndGlyphs" textLength="260">...with client_id, scope, state, redirect_uri</text><polygon fill="#A80036" points="86 185.156 76 189.156 86 193.156 82 189.156" style="stroke:#a80036;stroke-width:1"/><polygon fill="#A80036" points="743 185.156 753 189.156 743 193.156 747 189.156" style="stroke:#a80036;stroke-width:1"/><line style="stroke:#a80036;stroke-width:1" x1="80" x2="749" y1="189.156" y2="189.156"/><text x="92" y="176.79" fill="#000" font-family="sans-serif" font-size="13" font-weight="bold" lengthAdjust="spacingAndGlyphs" textLength="9">3</text><text x="105" y="169.223" fill="#000" font-family="sans-serif" font-size="13" lengthAdjust="spacingAndGlyphs" textLength="212">Authenticate resource owner and</text><text x="105" y="184.356" fill="#000" font-family="sans-serif" font-size="13" lengthAdjust="spacingAndGlyphs" textLength="156">confirm resource access</text><polygon fill="#A80036" points="86 214.422 76 218.422 86 222.422 82 218.422" style="stroke:#a80036;stroke-width:1"/><line style="stroke:#a80036;stroke-width:1" x1="80" x2="754" y1="218.422" y2="218.422"/><text x="92" y="213.489" fill="#000" font-family="sans-serif" font-size="13" font-weight="bold" lengthAdjust="spacingAndGlyphs" textLength="9">4</text><text x="105" y="213.489" fill="#000" font-family="sans-serif" font-size="13" lengthAdjust="spacingAndGlyphs" textLength="208">If credentials are valid, redirect...</text><polygon fill="#A80036" points="394 243.555 404 247.555 394 251.555 398 247.555" style="stroke:#a80036;stroke-width:1"/><line style="stroke:#a80036;stroke-width:1" x1="75" x2="400" y1="247.555" y2="247.555"/><text x="82" y="242.622" fill="#000" font-family="sans-serif" font-size="13" font-weight="bold" lengthAdjust="spacingAndGlyphs" textLength="9">5</text><text x="95" y="242.622" fill="#000" font-family="sans-serif" font-size="13" lengthAdjust="spacingAndGlyphs" textLength="294">...with authorization code, state to redirect_uri</text><polygon fill="#A80036" points="743 287.688 753 291.688 743 295.688 747 291.688" style="stroke:#a80036;stroke-width:1"/><line style="stroke:#a80036;stroke-width:1" x1="406" x2="749" y1="291.688" y2="291.688"/><text x="413" y="279.321" fill="#000" font-family="sans-serif" font-size="13" font-weight="bold" lengthAdjust="spacingAndGlyphs" textLength="9">6</text><text x="426" y="271.754" fill="#000" font-family="sans-serif" font-size="13" lengthAdjust="spacingAndGlyphs" textLength="256">Authenticate, request access token with</text><text x="426" y="286.887" fill="#000" font-family="sans-serif" font-size="13" lengthAdjust="spacingAndGlyphs" textLength="199">authorization code, redirect_uri</text><polygon fill="#A80036" points="417 316.953 407 320.953 417 324.953 413 320.953" style="stroke:#a80036;stroke-width:1"/><line style="stroke:#a80036;stroke-width:1" x1="411" x2="754" y1="320.953" y2="320.953"/><text x="423" y="316.02" fill="#000" font-family="sans-serif" font-size="13" font-weight="bold" lengthAdjust="spacingAndGlyphs" textLength="9">7</text><text x="436" y="316.02" fill="#000" font-family="sans-serif" font-size="13" lengthAdjust="spacingAndGlyphs" textLength="312">If authorization code is valid, return access token</text><polygon fill="#A80036" points="1097 346.086 1107 350.086 1097 354.086 1101 350.086" style="stroke:#a80036;stroke-width:1"/><line style="stroke:#a80036;stroke-width:1" x1="406" x2="1103" y1="350.086" y2="350.086"/><text x="413" y="345.153" fill="#000" font-family="sans-serif" font-size="13" font-weight="bold" lengthAdjust="spacingAndGlyphs" textLength="9">8</text><text x="426" y="345.153" fill="#000" font-family="sans-serif" font-size="13" lengthAdjust="spacingAndGlyphs" textLength="229">Request resource with access token</text><polygon fill="#A80036" points="766 375.219 756 379.219 766 383.219 762 379.219" style="stroke:#a80036;stroke-width:1"/><line style="stroke:#a80036;stroke-width:1" x1="760" x2="1108" y1="379.219" y2="379.219"/><text x="772" y="374.286" fill="#000" font-family="sans-serif" font-size="13" font-weight="bold" lengthAdjust="spacingAndGlyphs" textLength="9">9</text><text x="785" y="374.286" fill="#000" font-family="sans-serif" font-size="13" lengthAdjust="spacingAndGlyphs" textLength="262">Request token validation and information</text><polygon fill="#A80036" points="1097 404.352 1107 408.352 1097 412.352 1101 408.352" style="stroke:#a80036;stroke-width:1"/><line style="stroke:#a80036;stroke-width:1" x1="755" x2="1103" y1="408.352" y2="408.352"/><text x="762" y="403.418" fill="#000" font-family="sans-serif" font-size="13" font-weight="bold" lengthAdjust="spacingAndGlyphs" textLength="18">10</text><text x="784" y="403.418" fill="#000" font-family="sans-serif" font-size="13" lengthAdjust="spacingAndGlyphs" textLength="308">If access token is valid, respond with information</text><polygon fill="#A80036" points="417 433.484 407 437.484 417 441.484 413 437.484" style="stroke:#a80036;stroke-width:1"/><line style="stroke:#a80036;stroke-width:1" x1="411" x2="1108" y1="437.484" y2="437.484"/><text x="423" y="432.551" fill="#000" font-family="sans-serif" font-size="13" font-weight="bold" lengthAdjust="spacingAndGlyphs" textLength="18">11</text><text x="445" y="432.551" fill="#000" font-family="sans-serif" font-size="13" lengthAdjust="spacingAndGlyphs" textLength="315">If access token is valid, return protected resource</text></g></svg>