<svg xmlns="http://www.w3.org/2000/svg" xmlns:xlink="http://www.w3.org/1999/xlink" width="934" height="509" contentScriptType="application/ecmascript" contentStyleType="text/css" style="width:934px;height:509px" preserveAspectRatio="none" version="1.1" viewBox="0 0 934 509" zoomAndPan="magnify"><defs><filter id="fc82jdr" width="300%" height="300%" x="-1" y="-1"><feGaussianBlur result="blurOut" stdDeviation="2"/><feColorMatrix in="blurOut" result="blurOut2" type="matrix" values="0 0 0 0 0 0 0 0 0 0 0 0 0 0 0 0 0 0 .4 0"/><feOffset dx="4" dy="4" in="blurOut2" result="blurOut3"/><feBlend in="SourceGraphic" in2="blurOut3" mode="normal"/></filter></defs><g><text x="305.25" y="22.995" fill="#000" font-family="sans-serif" font-size="14" font-weight="bold" lengthAdjust="spacingAndGlyphs" textLength="327">OpenID Connect Authorization Code Flow</text><rect style="stroke:#a80036;stroke-width:1" width="454" height="474.32" x="479.5" y="34.297" fill="#FAFAFA"/><text x="646" y="46.364" fill="#000" font-family="sans-serif" font-size="13" font-weight="bold" lengthAdjust="spacingAndGlyphs" textLength="121">OpenID Provider</text><text x="669.5" y="61.497" fill="#000" font-family="sans-serif" font-size="13" font-weight="bold" lengthAdjust="spacingAndGlyphs" textLength="74">(OpenAM)</text><line style="stroke:#a80036;stroke-width:1;stroke-dasharray:5,5" x1="61" x2="61" y1="103.859" y2="470.32"/><line style="stroke:#a80036;stroke-width:1;stroke-dasharray:5,5" x1="380.5" x2="380.5" y1="103.859" y2="470.32"/><line style="stroke:#a80036;stroke-width:1;stroke-dasharray:5,5" x1="561.5" x2="561.5" y1="103.859" y2="470.32"/><line style="stroke:#a80036;stroke-width:1;stroke-dasharray:5,5" x1="714.5" x2="714.5" y1="103.859" y2="470.32"/><line style="stroke:#a80036;stroke-width:1;stroke-dasharray:5,5" x1="858.5" x2="858.5" y1="103.859" y2="470.32"/><rect style="stroke:#a80036;stroke-width:1.5" width="102" height="30.297" x="8" y="68.563" fill="#FEFECE" filter="url(#fc82jdr)"/><text x="15" y="88.558" fill="#000" font-family="sans-serif" font-size="14" lengthAdjust="spacingAndGlyphs" textLength="88">Relying Party</text><rect style="stroke:#a80036;stroke-width:1.5" width="102" height="30.297" x="8" y="469.32" fill="#FEFECE" filter="url(#fc82jdr)"/><text x="15" y="489.315" fill="#000" font-family="sans-serif" font-size="14" lengthAdjust="spacingAndGlyphs" textLength="88">Relying Party</text><rect style="stroke:#a80036;stroke-width:1.5" width="77" height="30.297" x="340.5" y="68.563" fill="#FEFECE" filter="url(#fc82jdr)"/><text x="347.5" y="88.558" fill="#000" font-family="sans-serif" font-size="14" lengthAdjust="spacingAndGlyphs" textLength="63">End User</text><rect style="stroke:#a80036;stroke-width:1.5" width="77" height="30.297" x="340.5" y="469.32" fill="#FEFECE" filter="url(#fc82jdr)"/><text x="347.5" y="489.315" fill="#000" font-family="sans-serif" font-size="14" lengthAdjust="spacingAndGlyphs" textLength="63">End User</text><rect style="stroke:#a80036;stroke-width:1.5" width="153" height="30.297" x="483.5" y="68.563" fill="#FEFECE" filter="url(#fc82jdr)"/><text x="490.5" y="88.558" fill="#000" font-family="sans-serif" font-size="14" lengthAdjust="spacingAndGlyphs" textLength="139">Authorization Server</text><rect style="stroke:#a80036;stroke-width:1.5" width="153" height="30.297" x="483.5" y="469.32" fill="#FEFECE" filter="url(#fc82jdr)"/><text x="490.5" y="489.315" fill="#000" font-family="sans-serif" font-size="14" lengthAdjust="spacingAndGlyphs" textLength="139">Authorization Server</text><rect style="stroke:#a80036;stroke-width:1.5" width="124" height="30.297" x="650.5" y="68.563" fill="#FEFECE" filter="url(#fc82jdr)"/><text x="657.5" y="88.558" fill="#000" font-family="sans-serif" font-size="14" lengthAdjust="spacingAndGlyphs" textLength="110">Token Endpoint</text><rect style="stroke:#a80036;stroke-width:1.5" width="124" height="30.297" x="650.5" y="469.32" fill="#FEFECE" filter="url(#fc82jdr)"/><text x="657.5" y="489.315" fill="#000" font-family="sans-serif" font-size="14" lengthAdjust="spacingAndGlyphs" textLength="110">Token Endpoint</text><rect style="stroke:#a80036;stroke-width:1.5" width="137" height="30.297" x="788.5" y="68.563" fill="#FEFECE" filter="url(#fc82jdr)"/><text x="795.5" y="88.558" fill="#000" font-family="sans-serif" font-size="14" lengthAdjust="spacingAndGlyphs" textLength="123">UserInfo Endpoint</text><rect style="stroke:#a80036;stroke-width:1.5" width="137" height="30.297" x="788.5" y="469.32" fill="#FEFECE" filter="url(#fc82jdr)"/><text x="795.5" y="489.315" fill="#000" font-family="sans-serif" font-size="14" lengthAdjust="spacingAndGlyphs" textLength="123">UserInfo Endpoint</text><line style="stroke:#a80036;stroke-width:1" x1="61" x2="103" y1="134.992" y2="134.992"/><line style="stroke:#a80036;stroke-width:1" x1="103" x2="103" y1="134.992" y2="147.992"/><line style="stroke:#a80036;stroke-width:1" x1="62" x2="103" y1="147.992" y2="147.992"/><polygon fill="#A80036" points="72 143.992 62 147.992 72 151.992 68 147.992" style="stroke:#a80036;stroke-width:1"/><text x="68" y="129.926" fill="#000" font-family="sans-serif" font-size="13" font-weight="bold" lengthAdjust="spacingAndGlyphs" textLength="9">1</text><text x="81" y="129.926" fill="#000" font-family="sans-serif" font-size="13" lengthAdjust="spacingAndGlyphs" textLength="195">Prepare Authorization Request</text><polygon fill="#A80036" points="550 172.992 560 176.992 550 180.992 554 176.992" style="stroke:#a80036;stroke-width:1"/><line style="stroke:#a80036;stroke-width:1" x1="61" x2="556" y1="176.992" y2="176.992"/><text x="68" y="172.059" fill="#000" font-family="sans-serif" font-size="13" font-weight="bold" lengthAdjust="spacingAndGlyphs" textLength="9">2</text><text x="81" y="172.059" fill="#000" font-family="sans-serif" font-size="13" lengthAdjust="spacingAndGlyphs" textLength="141">Authorization Request</text><polygon fill="#A80036" points="392 202.125 382 206.125 392 210.125 388 206.125" style="stroke:#a80036;stroke-width:1"/><line style="stroke:#a80036;stroke-width:1" x1="386" x2="561" y1="206.125" y2="206.125"/><text x="398" y="201.192" fill="#000" font-family="sans-serif" font-size="13" font-weight="bold" lengthAdjust="spacingAndGlyphs" textLength="9">3</text><text x="411" y="201.192" fill="#000" font-family="sans-serif" font-size="13" lengthAdjust="spacingAndGlyphs" textLength="144">Authenticate End User</text><polygon fill="#A80036" points="550 231.258 560 235.258 550 239.258 554 235.258" style="stroke:#a80036;stroke-width:1"/><line style="stroke:#a80036;stroke-width:1" x1="381" x2="556" y1="235.258" y2="235.258"/><text x="388" y="230.325" fill="#000" font-family="sans-serif" font-size="13" font-weight="bold" lengthAdjust="spacingAndGlyphs" textLength="9">4</text><text x="401" y="230.325" fill="#000" font-family="sans-serif" font-size="13" lengthAdjust="spacingAndGlyphs" textLength="141">Consent/authorization</text><polygon fill="#A80036" points="392 260.391 382 264.391 392 268.391 388 264.391" style="stroke:#a80036;stroke-width:1"/><line style="stroke:#a80036;stroke-width:1" x1="386" x2="561" y1="264.391" y2="264.391"/><text x="398" y="259.457" fill="#000" font-family="sans-serif" font-size="13" font-weight="bold" lengthAdjust="spacingAndGlyphs" textLength="9">5</text><text x="411" y="259.457" fill="#000" font-family="sans-serif" font-size="13" lengthAdjust="spacingAndGlyphs" textLength="97">Redirect with ...</text><polygon fill="#A80036" points="72 289.523 62 293.523 72 297.523 68 293.523" style="stroke:#a80036;stroke-width:1"/><line style="stroke:#a80036;stroke-width:1" x1="66" x2="380" y1="293.523" y2="293.523"/><text x="78" y="288.59" fill="#000" font-family="sans-serif" font-size="13" font-weight="bold" lengthAdjust="spacingAndGlyphs" textLength="9">6</text><text x="91" y="288.59" fill="#000" font-family="sans-serif" font-size="13" lengthAdjust="spacingAndGlyphs" textLength="138">... Authorization Code</text><polygon fill="#A80036" points="702.5 318.656 712.5 322.656 702.5 326.656 706.5 322.656" style="stroke:#a80036;stroke-width:1"/><line style="stroke:#a80036;stroke-width:1" x1="61" x2="708.5" y1="322.656" y2="322.656"/><text x="68" y="317.723" fill="#000" font-family="sans-serif" font-size="13" font-weight="bold" lengthAdjust="spacingAndGlyphs" textLength="9">7</text><text x="81" y="317.723" fill="#000" font-family="sans-serif" font-size="13" lengthAdjust="spacingAndGlyphs" textLength="122">Authorization Code</text><polygon fill="#A80036" points="72 347.789 62 351.789 72 355.789 68 351.789" style="stroke:#a80036;stroke-width:1"/><line style="stroke:#a80036;stroke-width:1" x1="66" x2="713.5" y1="351.789" y2="351.789"/><text x="78" y="346.856" fill="#000" font-family="sans-serif" font-size="13" font-weight="bold" lengthAdjust="spacingAndGlyphs" textLength="9">8</text><text x="91" y="346.856" fill="#000" font-family="sans-serif" font-size="13" lengthAdjust="spacingAndGlyphs" textLength="174">Access Token and ID Token</text><line style="stroke:#a80036;stroke-width:1" x1="61" x2="103" y1="381.055" y2="381.055"/><line style="stroke:#a80036;stroke-width:1" x1="103" x2="103" y1="381.055" y2="394.055"/><line style="stroke:#a80036;stroke-width:1" x1="62" x2="103" y1="394.055" y2="394.055"/><polygon fill="#A80036" points="72 390.055 62 394.055 72 398.055 68 394.055" style="stroke:#a80036;stroke-width:1"/><text x="68" y="375.989" fill="#000" font-family="sans-serif" font-size="13" font-weight="bold" lengthAdjust="spacingAndGlyphs" textLength="9">9</text><text x="81" y="375.989" fill="#000" font-family="sans-serif" font-size="13" lengthAdjust="spacingAndGlyphs" textLength="293">Validate ID Token and get End User subject ID</text><polygon fill="#A80036" points="847 419.055 857 423.055 847 427.055 851 423.055" style="stroke:#a80036;stroke-width:1"/><line style="stroke:#a80036;stroke-width:1" x1="61" x2="853" y1="423.055" y2="423.055"/><text x="68" y="418.122" fill="#000" font-family="sans-serif" font-size="13" font-weight="bold" lengthAdjust="spacingAndGlyphs" textLength="18">10</text><text x="90" y="418.122" fill="#000" font-family="sans-serif" font-size="13" lengthAdjust="spacingAndGlyphs" textLength="5">(</text><text x="95" y="418.122" fill="#000" font-family="sans-serif" font-size="13" font-style="italic" lengthAdjust="spacingAndGlyphs" textLength="53">Optional</text><text x="148" y="418.122" fill="#000" font-family="sans-serif" font-size="13" lengthAdjust="spacingAndGlyphs" textLength="96">) Access Token</text><polygon fill="#A80036" points="72 448.188 62 452.188 72 456.188 68 452.188" style="stroke:#a80036;stroke-width:1"/><line style="stroke:#a80036;stroke-width:1" x1="66" x2="858" y1="452.188" y2="452.188"/><text x="78" y="447.254" fill="#000" font-family="sans-serif" font-size="13" font-weight="bold" lengthAdjust="spacingAndGlyphs" textLength="18">11</text><text x="100" y="447.254" fill="#000" font-family="sans-serif" font-size="13" lengthAdjust="spacingAndGlyphs" textLength="5">(</text><text x="105" y="447.254" fill="#000" font-family="sans-serif" font-size="13" font-style="italic" lengthAdjust="spacingAndGlyphs" textLength="53">Optional</text><text x="158" y="447.254" fill="#000" font-family="sans-serif" font-size="13" lengthAdjust="spacingAndGlyphs" textLength="128">) UserInfo Response</text></g></svg>