<svg xmlns="http://www.w3.org/2000/svg" xmlns:xlink="http://www.w3.org/1999/xlink" width="796" height="451" contentScriptType="application/ecmascript" contentStyleType="text/css" style="width:796px;height:451px" preserveAspectRatio="none" version="1.1" viewBox="0 0 796 451" zoomAndPan="magnify"><defs><filter id="f1tzgny" width="300%" height="300%" x="-1" y="-1"><feGaussianBlur result="blurOut" stdDeviation="2"/><feColorMatrix in="blurOut" result="blurOut2" type="matrix" values="0 0 0 0 0 0 0 0 0 0 0 0 0 0 0 0 0 0 .4 0"/><feOffset dx="4" dy="4" in="blurOut2" result="blurOut3"/><feBlend in="SourceGraphic" in2="blurOut3" mode="normal"/></filter></defs><g><text x="284.75" y="22.995" fill="#000" font-family="sans-serif" font-size="14" font-weight="bold" lengthAdjust="spacingAndGlyphs" textLength="230">OpenID Connect Implicit Flow</text><rect style="stroke:#a80036;stroke-width:1" width="316" height="416.055" x="479.5" y="34.297" fill="#FAFAFA"/><text x="577" y="46.364" fill="#000" font-family="sans-serif" font-size="13" font-weight="bold" lengthAdjust="spacingAndGlyphs" textLength="121">OpenID Provider</text><text x="600.5" y="61.497" fill="#000" font-family="sans-serif" font-size="13" font-weight="bold" lengthAdjust="spacingAndGlyphs" textLength="74">(OpenAM)</text><line style="stroke:#a80036;stroke-width:1;stroke-dasharray:5,5" x1="61" x2="61" y1="103.859" y2="412.055"/><line style="stroke:#a80036;stroke-width:1;stroke-dasharray:5,5" x1="380.5" x2="380.5" y1="103.859" y2="412.055"/><line style="stroke:#a80036;stroke-width:1;stroke-dasharray:5,5" x1="561.5" x2="561.5" y1="103.859" y2="412.055"/><line style="stroke:#a80036;stroke-width:1;stroke-dasharray:5,5" x1="720.5" x2="720.5" y1="103.859" y2="412.055"/><rect style="stroke:#a80036;stroke-width:1.5" width="102" height="30.297" x="8" y="68.563" fill="#FEFECE" filter="url(#f1tzgny)"/><text x="15" y="88.558" fill="#000" font-family="sans-serif" font-size="14" lengthAdjust="spacingAndGlyphs" textLength="88">Relying Party</text><rect style="stroke:#a80036;stroke-width:1.5" width="102" height="30.297" x="8" y="411.055" fill="#FEFECE" filter="url(#f1tzgny)"/><text x="15" y="431.05" fill="#000" font-family="sans-serif" font-size="14" lengthAdjust="spacingAndGlyphs" textLength="88">Relying Party</text><rect style="stroke:#a80036;stroke-width:1.5" width="77" height="30.297" x="340.5" y="68.563" fill="#FEFECE" filter="url(#f1tzgny)"/><text x="347.5" y="88.558" fill="#000" font-family="sans-serif" font-size="14" lengthAdjust="spacingAndGlyphs" textLength="63">End User</text><rect style="stroke:#a80036;stroke-width:1.5" width="77" height="30.297" x="340.5" y="411.055" fill="#FEFECE" filter="url(#f1tzgny)"/><text x="347.5" y="431.05" fill="#000" font-family="sans-serif" font-size="14" lengthAdjust="spacingAndGlyphs" textLength="63">End User</text><rect style="stroke:#a80036;stroke-width:1.5" width="153" height="30.297" x="483.5" y="68.563" fill="#FEFECE" filter="url(#f1tzgny)"/><text x="490.5" y="88.558" fill="#000" font-family="sans-serif" font-size="14" lengthAdjust="spacingAndGlyphs" textLength="139">Authorization Server</text><rect style="stroke:#a80036;stroke-width:1.5" width="153" height="30.297" x="483.5" y="411.055" fill="#FEFECE" filter="url(#f1tzgny)"/><text x="490.5" y="431.05" fill="#000" font-family="sans-serif" font-size="14" lengthAdjust="spacingAndGlyphs" textLength="139">Authorization Server</text><rect style="stroke:#a80036;stroke-width:1.5" width="137" height="30.297" x="650.5" y="68.563" fill="#FEFECE" filter="url(#f1tzgny)"/><text x="657.5" y="88.558" fill="#000" font-family="sans-serif" font-size="14" lengthAdjust="spacingAndGlyphs" textLength="123">UserInfo Endpoint</text><rect style="stroke:#a80036;stroke-width:1.5" width="137" height="30.297" x="650.5" y="411.055" fill="#FEFECE" filter="url(#f1tzgny)"/><text x="657.5" y="431.05" fill="#000" font-family="sans-serif" font-size="14" lengthAdjust="spacingAndGlyphs" textLength="123">UserInfo Endpoint</text><line style="stroke:#a80036;stroke-width:1" x1="61" x2="103" y1="134.992" y2="134.992"/><line style="stroke:#a80036;stroke-width:1" x1="103" x2="103" y1="134.992" y2="147.992"/><line style="stroke:#a80036;stroke-width:1" x1="62" x2="103" y1="147.992" y2="147.992"/><polygon fill="#A80036" points="72 143.992 62 147.992 72 151.992 68 147.992" style="stroke:#a80036;stroke-width:1"/><text x="68" y="129.926" fill="#000" font-family="sans-serif" font-size="13" font-weight="bold" lengthAdjust="spacingAndGlyphs" textLength="9">1</text><text x="81" y="129.926" fill="#000" font-family="sans-serif" font-size="13" lengthAdjust="spacingAndGlyphs" textLength="195">Prepare Authorization Request</text><polygon fill="#A80036" points="550 172.992 560 176.992 550 180.992 554 176.992" style="stroke:#a80036;stroke-width:1"/><line style="stroke:#a80036;stroke-width:1" x1="61" x2="556" y1="176.992" y2="176.992"/><text x="68" y="172.059" fill="#000" font-family="sans-serif" font-size="13" font-weight="bold" lengthAdjust="spacingAndGlyphs" textLength="9">2</text><text x="81" y="172.059" fill="#000" font-family="sans-serif" font-size="13" lengthAdjust="spacingAndGlyphs" textLength="141">Authorization Request</text><polygon fill="#A80036" points="392 202.125 382 206.125 392 210.125 388 206.125" style="stroke:#a80036;stroke-width:1"/><line style="stroke:#a80036;stroke-width:1" x1="386" x2="561" y1="206.125" y2="206.125"/><text x="398" y="201.192" fill="#000" font-family="sans-serif" font-size="13" font-weight="bold" lengthAdjust="spacingAndGlyphs" textLength="9">3</text><text x="411" y="201.192" fill="#000" font-family="sans-serif" font-size="13" lengthAdjust="spacingAndGlyphs" textLength="144">Authenticate End User</text><polygon fill="#A80036" points="550 231.258 560 235.258 550 239.258 554 235.258" style="stroke:#a80036;stroke-width:1"/><line style="stroke:#a80036;stroke-width:1" x1="381" x2="556" y1="235.258" y2="235.258"/><text x="388" y="230.325" fill="#000" font-family="sans-serif" font-size="13" font-weight="bold" lengthAdjust="spacingAndGlyphs" textLength="9">4</text><text x="401" y="230.325" fill="#000" font-family="sans-serif" font-size="13" lengthAdjust="spacingAndGlyphs" textLength="141">Consent/authorization</text><polygon fill="#A80036" points="392 260.391 382 264.391 392 268.391 388 264.391" style="stroke:#a80036;stroke-width:1"/><line style="stroke:#a80036;stroke-width:1" x1="386" x2="561" y1="264.391" y2="264.391"/><text x="398" y="259.457" fill="#000" font-family="sans-serif" font-size="13" font-weight="bold" lengthAdjust="spacingAndGlyphs" textLength="9">5</text><text x="411" y="259.457" fill="#000" font-family="sans-serif" font-size="13" lengthAdjust="spacingAndGlyphs" textLength="97">Redirect with ...</text><polygon fill="#A80036" points="72 289.523 62 293.523 72 297.523 68 293.523" style="stroke:#a80036;stroke-width:1"/><line style="stroke:#a80036;stroke-width:1" x1="66" x2="380" y1="293.523" y2="293.523"/><text x="78" y="288.59" fill="#000" font-family="sans-serif" font-size="13" font-weight="bold" lengthAdjust="spacingAndGlyphs" textLength="9">6</text><text x="91" y="288.59" fill="#000" font-family="sans-serif" font-size="13" lengthAdjust="spacingAndGlyphs" textLength="190">... Access Token and ID Token</text><line style="stroke:#a80036;stroke-width:1" x1="61" x2="103" y1="322.789" y2="322.789"/><line style="stroke:#a80036;stroke-width:1" x1="103" x2="103" y1="322.789" y2="335.789"/><line style="stroke:#a80036;stroke-width:1" x1="62" x2="103" y1="335.789" y2="335.789"/><polygon fill="#A80036" points="72 331.789 62 335.789 72 339.789 68 335.789" style="stroke:#a80036;stroke-width:1"/><text x="68" y="317.723" fill="#000" font-family="sans-serif" font-size="13" font-weight="bold" lengthAdjust="spacingAndGlyphs" textLength="9">7</text><text x="81" y="317.723" fill="#000" font-family="sans-serif" font-size="13" lengthAdjust="spacingAndGlyphs" textLength="293">Validate ID Token and get End User subject ID</text><polygon fill="#A80036" points="709 360.789 719 364.789 709 368.789 713 364.789" style="stroke:#a80036;stroke-width:1"/><line style="stroke:#a80036;stroke-width:1" x1="61" x2="715" y1="364.789" y2="364.789"/><text x="68" y="359.856" fill="#000" font-family="sans-serif" font-size="13" font-weight="bold" lengthAdjust="spacingAndGlyphs" textLength="9">8</text><text x="81" y="359.856" fill="#000" font-family="sans-serif" font-size="13" lengthAdjust="spacingAndGlyphs" textLength="5">(</text><text x="86" y="359.856" fill="#000" font-family="sans-serif" font-size="13" font-style="italic" lengthAdjust="spacingAndGlyphs" textLength="53">Optional</text><text x="139" y="359.856" fill="#000" font-family="sans-serif" font-size="13" lengthAdjust="spacingAndGlyphs" textLength="96">) Access Token</text><polygon fill="#A80036" points="72 389.922 62 393.922 72 397.922 68 393.922" style="stroke:#a80036;stroke-width:1"/><line style="stroke:#a80036;stroke-width:1" x1="66" x2="720" y1="393.922" y2="393.922"/><text x="78" y="388.989" fill="#000" font-family="sans-serif" font-size="13" font-weight="bold" lengthAdjust="spacingAndGlyphs" textLength="9">9</text><text x="91" y="388.989" fill="#000" font-family="sans-serif" font-size="13" lengthAdjust="spacingAndGlyphs" textLength="5">(</text><text x="96" y="388.989" fill="#000" font-family="sans-serif" font-size="13" font-style="italic" lengthAdjust="spacingAndGlyphs" textLength="53">Optional</text><text x="149" y="388.989" fill="#000" font-family="sans-serif" font-size="13" lengthAdjust="spacingAndGlyphs" textLength="128">) UserInfo Response</text></g></svg>