<svg xmlns="http://www.w3.org/2000/svg" xmlns:xlink="http://www.w3.org/1999/xlink" width="550" height="477" contentScriptType="application/ecmascript" contentStyleType="text/css" style="width:550px;height:477px" preserveAspectRatio="none" version="1.1" viewBox="0 0 550 477" zoomAndPan="magnify"><defs><filter id="f16ffhj" width="300%" height="300%" x="-1" y="-1"><feGaussianBlur result="blurOut" stdDeviation="2"/><feColorMatrix in="blurOut" result="blurOut2" type="matrix" values="0 0 0 0 0 0 0 0 0 0 0 0 0 0 0 0 0 0 .4 0"/><feOffset dx="4" dy="4" in="blurOut2" result="blurOut3"/><feBlend in="SourceGraphic" in2="blurOut3" mode="normal"/></filter></defs><g><line style="stroke:#a80036;stroke-width:1;stroke-dasharray:5,5" x1="33" x2="33" y1="38.297" y2="439.422"/><line style="stroke:#a80036;stroke-width:1;stroke-dasharray:5,5" x1="263.5" x2="263.5" y1="38.297" y2="439.422"/><line style="stroke:#a80036;stroke-width:1;stroke-dasharray:5,5" x1="506.5" x2="506.5" y1="38.297" y2="439.422"/><rect style="stroke:#a80036;stroke-width:1.5" width="46" height="30.297" x="8" y="3" fill="#FEFECE" filter="url(#f16ffhj)"/><text x="15" y="22.995" fill="#000" font-family="sans-serif" font-size="14" lengthAdjust="spacingAndGlyphs" textLength="32">User</text><rect style="stroke:#a80036;stroke-width:1.5" width="46" height="30.297" x="8" y="438.422" fill="#FEFECE" filter="url(#f16ffhj)"/><text x="15" y="458.417" fill="#000" font-family="sans-serif" font-size="14" lengthAdjust="spacingAndGlyphs" textLength="32">User</text><rect style="stroke:#a80036;stroke-width:1.5" width="109" height="30.297" x="207.5" y="3" fill="#FEFECE" filter="url(#f16ffhj)"/><text x="214.5" y="22.995" fill="#000" font-family="sans-serif" font-size="14" lengthAdjust="spacingAndGlyphs" textLength="95">RADIUS Client</text><rect style="stroke:#a80036;stroke-width:1.5" width="109" height="30.297" x="207.5" y="438.422" fill="#FEFECE" filter="url(#f16ffhj)"/><text x="214.5" y="458.417" fill="#000" font-family="sans-serif" font-size="14" lengthAdjust="spacingAndGlyphs" textLength="95">RADIUS Client</text><rect style="stroke:#a80036;stroke-width:1.5" width="73" height="30.297" x="468.5" y="3" fill="#FEFECE" filter="url(#f16ffhj)"/><text x="475.5" y="22.995" fill="#000" font-family="sans-serif" font-size="14" lengthAdjust="spacingAndGlyphs" textLength="59">OpenAM</text><rect style="stroke:#a80036;stroke-width:1.5" width="73" height="30.297" x="468.5" y="438.422" fill="#FEFECE" filter="url(#f16ffhj)"/><text x="475.5" y="458.417" fill="#000" font-family="sans-serif" font-size="14" lengthAdjust="spacingAndGlyphs" textLength="59">OpenAM</text><polygon fill="#A80036" points="44 80.297 34 84.297 44 88.297 40 84.297" style="stroke:#a80036;stroke-width:1"/><line style="stroke:#a80036;stroke-width:1" x1="38" x2="263" y1="84.297" y2="84.297"/><text x="50" y="71.93" fill="#000" font-family="sans-serif" font-size="13" font-weight="bold" lengthAdjust="spacingAndGlyphs" textLength="9">1</text><text x="63" y="64.364" fill="#000" font-family="sans-serif" font-size="13" lengthAdjust="spacingAndGlyphs" textLength="141">Prompt for user name</text><text x="63" y="79.497" fill="#000" font-family="sans-serif" font-size="13" lengthAdjust="spacingAndGlyphs" textLength="88">and password</text><polygon fill="#A80036" points="252 124.563 262 128.563 252 132.563 256 128.563" style="stroke:#a80036;stroke-width:1"/><line style="stroke:#a80036;stroke-width:1" x1="33" x2="258" y1="128.563" y2="128.563"/><text x="40" y="116.196" fill="#000" font-family="sans-serif" font-size="13" font-weight="bold" lengthAdjust="spacingAndGlyphs" textLength="9">2</text><text x="53" y="108.629" fill="#000" font-family="sans-serif" font-size="13" lengthAdjust="spacingAndGlyphs" textLength="120">Provide user name</text><text x="53" y="123.762" fill="#000" font-family="sans-serif" font-size="13" lengthAdjust="spacingAndGlyphs" textLength="88">and password</text><polygon fill="#A80036" points="495 168.828 505 172.828 495 176.828 499 172.828" style="stroke:#a80036;stroke-width:1"/><line style="stroke:#a80036;stroke-width:1" x1="264" x2="501" y1="172.828" y2="172.828"/><text x="271" y="160.461" fill="#000" font-family="sans-serif" font-size="13" font-weight="bold" lengthAdjust="spacingAndGlyphs" textLength="9">3</text><text x="284" y="152.895" fill="#000" font-family="sans-serif" font-size="13" lengthAdjust="spacingAndGlyphs" textLength="184">Authentication request using</text><text x="284" y="168.028" fill="#000" font-family="sans-serif" font-size="13" lengthAdjust="spacingAndGlyphs" textLength="149">Access-Request packet</text><polygon fill="#A80036" points="275 213.094 265 217.094 275 221.094 271 217.094" style="stroke:#a80036;stroke-width:1"/><line style="stroke:#a80036;stroke-width:1" x1="269" x2="506" y1="217.094" y2="217.094"/><text x="281" y="204.727" fill="#000" font-family="sans-serif" font-size="13" font-weight="bold" lengthAdjust="spacingAndGlyphs" textLength="9">4</text><text x="294" y="197.161" fill="#000" font-family="sans-serif" font-size="13" lengthAdjust="spacingAndGlyphs" textLength="160">Access-Challenge packet</text><text x="294" y="212.293" fill="#000" font-family="sans-serif" font-size="13" lengthAdjust="spacingAndGlyphs" textLength="94">with State field</text><polygon fill="#A80036" points="44 242.359 34 246.359 44 250.359 40 246.359" style="stroke:#a80036;stroke-width:1"/><line style="stroke:#a80036;stroke-width:1" x1="38" x2="263" y1="246.359" y2="246.359"/><text x="50" y="241.426" fill="#000" font-family="sans-serif" font-size="13" font-weight="bold" lengthAdjust="spacingAndGlyphs" textLength="9">5</text><text x="63" y="241.426" fill="#000" font-family="sans-serif" font-size="13" lengthAdjust="spacingAndGlyphs" textLength="194">Prompt for one-time password</text><line style="stroke:#a80036;stroke-width:1" x1="33" x2="75" y1="305.891" y2="305.891"/><line style="stroke:#a80036;stroke-width:1" x1="75" x2="75" y1="305.891" y2="318.891"/><line style="stroke:#a80036;stroke-width:1" x1="34" x2="75" y1="318.891" y2="318.891"/><polygon fill="#A80036" points="44 314.891 34 318.891 44 322.891 40 318.891" style="stroke:#a80036;stroke-width:1"/><text x="40" y="285.692" fill="#000" font-family="sans-serif" font-size="13" font-weight="bold" lengthAdjust="spacingAndGlyphs" textLength="9">6</text><text x="53" y="270.559" fill="#000" font-family="sans-serif" font-size="13" lengthAdjust="spacingAndGlyphs" textLength="149">Get one-time password</text><text x="53" y="285.692" fill="#000" font-family="sans-serif" font-size="13" lengthAdjust="spacingAndGlyphs" textLength="148">from authenticator app</text><text x="53" y="300.825" fill="#000" font-family="sans-serif" font-size="13" lengthAdjust="spacingAndGlyphs" textLength="107">on mobile phone</text><polygon fill="#A80036" points="252 343.891 262 347.891 252 351.891 256 347.891" style="stroke:#a80036;stroke-width:1"/><line style="stroke:#a80036;stroke-width:1" x1="33" x2="258" y1="347.891" y2="347.891"/><text x="40" y="342.957" fill="#000" font-family="sans-serif" font-size="13" font-weight="bold" lengthAdjust="spacingAndGlyphs" textLength="9">7</text><text x="53" y="342.957" fill="#000" font-family="sans-serif" font-size="13" lengthAdjust="spacingAndGlyphs" textLength="173">Provide one-time password</text><polygon fill="#A80036" points="495 388.023 505 392.023 495 396.023 499 392.023" style="stroke:#a80036;stroke-width:1"/><line style="stroke:#a80036;stroke-width:1" x1="264" x2="501" y1="392.023" y2="392.023"/><text x="271" y="379.657" fill="#000" font-family="sans-serif" font-size="13" font-weight="bold" lengthAdjust="spacingAndGlyphs" textLength="9">8</text><text x="284" y="372.09" fill="#000" font-family="sans-serif" font-size="13" lengthAdjust="spacingAndGlyphs" textLength="206">Response using Access-Request</text><text x="284" y="387.223" fill="#000" font-family="sans-serif" font-size="13" lengthAdjust="spacingAndGlyphs" textLength="141">packet with State field</text><polygon fill="#A80036" points="275 417.289 265 421.289 275 425.289 271 421.289" style="stroke:#a80036;stroke-width:1"/><line style="stroke:#a80036;stroke-width:1" x1="269" x2="506" y1="421.289" y2="421.289"/><text x="281" y="416.356" fill="#000" font-family="sans-serif" font-size="13" font-weight="bold" lengthAdjust="spacingAndGlyphs" textLength="9">9</text><text x="294" y="416.356" fill="#000" font-family="sans-serif" font-size="13" lengthAdjust="spacingAndGlyphs" textLength="141">Access-Accept packet</text></g></svg>