<svg xmlns="http://www.w3.org/2000/svg" xmlns:xlink="http://www.w3.org/1999/xlink" width="736" height="479" contentScriptType="application/ecmascript" contentStyleType="text/css" style="width:736px;height:479px" preserveAspectRatio="none" version="1.1" viewBox="0 0 736 479" zoomAndPan="magnify"><defs><filter id="f8np9rm" width="300%" height="300%" x="-1" y="-1"><feGaussianBlur result="blurOut" stdDeviation="2"/><feColorMatrix in="blurOut" result="blurOut2" type="matrix" values="0 0 0 0 0 0 0 0 0 0 0 0 0 0 0 0 0 0 .4 0"/><feOffset dx="4" dy="4" in="blurOut2" result="blurOut3"/><feBlend in="SourceGraphic" in2="blurOut3" mode="normal"/></filter></defs><g><text x="233.5" y="22.995" fill="#000" font-family="sans-serif" font-size="14" font-weight="bold" lengthAdjust="spacingAndGlyphs" textLength="272">SAML v1.x Browser Artifact Profile</text><line style="stroke:#a80036;stroke-width:1;stroke-dasharray:5,5" x1="45" x2="45" y1="84.891" y2="425.352"/><line style="stroke:#a80036;stroke-width:1;stroke-dasharray:5,5" x1="432" x2="432" y1="84.891" y2="425.352"/><line style="stroke:#a80036;stroke-width:1;stroke-dasharray:5,5" x1="663" x2="663" y1="84.891" y2="425.352"/><rect style="stroke:#a80036;stroke-width:1.5" width="71" height="30.297" x="8" y="49.594" fill="#FEFECE" filter="url(#f8np9rm)"/><text x="15" y="69.589" fill="#000" font-family="sans-serif" font-size="14" lengthAdjust="spacingAndGlyphs" textLength="57">Browser</text><rect style="stroke:#a80036;stroke-width:1.5" width="71" height="30.297" x="8" y="424.352" fill="#FEFECE" filter="url(#f8np9rm)"/><text x="15" y="444.347" fill="#000" font-family="sans-serif" font-size="14" lengthAdjust="spacingAndGlyphs" textLength="57">Browser</text><rect style="stroke:#a80036;stroke-width:1.5" width="131" height="46.594" x="365" y="33.297" fill="#FEFECE" filter="url(#f8np9rm)"/><text x="379" y="53.292" fill="#000" font-family="sans-serif" font-size="14" lengthAdjust="spacingAndGlyphs" textLength="103">Asserting Party</text><text x="372" y="69.589" fill="#000" font-family="sans-serif" font-size="14" lengthAdjust="spacingAndGlyphs" textLength="117">such as OpenAM</text><rect style="stroke:#a80036;stroke-width:1.5" width="131" height="46.594" x="365" y="424.352" fill="#FEFECE" filter="url(#f8np9rm)"/><text x="379" y="444.347" fill="#000" font-family="sans-serif" font-size="14" lengthAdjust="spacingAndGlyphs" textLength="103">Asserting Party</text><text x="372" y="460.644" fill="#000" font-family="sans-serif" font-size="14" lengthAdjust="spacingAndGlyphs" textLength="117">such as OpenAM</text><rect style="stroke:#a80036;stroke-width:1.5" width="131" height="46.594" x="596" y="33.297" fill="#FEFECE" filter="url(#f8np9rm)"/><text x="617.5" y="53.292" fill="#000" font-family="sans-serif" font-size="14" lengthAdjust="spacingAndGlyphs" textLength="88">Relying Party</text><text x="603" y="69.589" fill="#000" font-family="sans-serif" font-size="14" lengthAdjust="spacingAndGlyphs" textLength="117">such as OpenAM</text><rect style="stroke:#a80036;stroke-width:1.5" width="131" height="46.594" x="596" y="424.352" fill="#FEFECE" filter="url(#f8np9rm)"/><text x="617.5" y="444.347" fill="#000" font-family="sans-serif" font-size="14" lengthAdjust="spacingAndGlyphs" textLength="88">Relying Party</text><text x="603" y="460.644" fill="#000" font-family="sans-serif" font-size="14" lengthAdjust="spacingAndGlyphs" textLength="117">such as OpenAM</text><polygon fill="#A80036" points="420.5 111.891 430.5 115.891 420.5 119.891 424.5 115.891" style="stroke:#a80036;stroke-width:1"/><line style="stroke:#a80036;stroke-width:1" x1="45.5" x2="426.5" y1="115.891" y2="115.891"/><text x="52.5" y="110.957" fill="#000" font-family="sans-serif" font-size="13" font-weight="bold" lengthAdjust="spacingAndGlyphs" textLength="9">1</text><text x="65.5" y="110.957" fill="#000" font-family="sans-serif" font-size="13" lengthAdjust="spacingAndGlyphs" textLength="137">Browse to source site</text><polygon fill="#A80036" points="56.5 141.023 46.5 145.023 56.5 149.023 52.5 145.023" style="stroke:#a80036;stroke-width:1"/><line style="stroke:#a80036;stroke-width:1" x1="50.5" x2="431.5" y1="145.023" y2="145.023"/><text x="62.5" y="140.09" fill="#000" font-family="sans-serif" font-size="13" font-weight="bold" lengthAdjust="spacingAndGlyphs" textLength="9">2</text><text x="75.5" y="140.09" fill="#000" font-family="sans-serif" font-size="13" lengthAdjust="spacingAndGlyphs" textLength="119">Present login page</text><polygon fill="#A80036" points="420.5 170.156 430.5 174.156 420.5 178.156 424.5 174.156" style="stroke:#a80036;stroke-width:1"/><line style="stroke:#a80036;stroke-width:1" x1="45.5" x2="426.5" y1="174.156" y2="174.156"/><text x="52.5" y="169.223" fill="#000" font-family="sans-serif" font-size="13" font-weight="bold" lengthAdjust="spacingAndGlyphs" textLength="9">3</text><text x="65.5" y="169.223" fill="#000" font-family="sans-serif" font-size="13" lengthAdjust="spacingAndGlyphs" textLength="141">Send login credentials</text><polygon fill="#A80036" points="56.5 199.289 46.5 203.289 56.5 207.289 52.5 203.289" style="stroke:#a80036;stroke-width:1"/><line style="stroke:#a80036;stroke-width:1" x1="50.5" x2="431.5" y1="203.289" y2="203.289"/><text x="62.5" y="198.356" fill="#000" font-family="sans-serif" font-size="13" font-weight="bold" lengthAdjust="spacingAndGlyphs" textLength="9">4</text><text x="75.5" y="198.356" fill="#000" font-family="sans-serif" font-size="13" lengthAdjust="spacingAndGlyphs" textLength="168">Show destination site links</text><polygon fill="#A80036" points="420.5 228.422 430.5 232.422 420.5 236.422 424.5 232.422" style="stroke:#a80036;stroke-width:1"/><line style="stroke:#a80036;stroke-width:1" x1="45.5" x2="426.5" y1="232.422" y2="232.422"/><text x="52.5" y="227.489" fill="#000" font-family="sans-serif" font-size="13" font-weight="bold" lengthAdjust="spacingAndGlyphs" textLength="9">5</text><text x="65.5" y="227.489" fill="#000" font-family="sans-serif" font-size="13" lengthAdjust="spacingAndGlyphs" textLength="214">Select destination site target URL</text><polygon fill="#A80036" points="56.5 257.555 46.5 261.555 56.5 265.555 52.5 261.555" style="stroke:#a80036;stroke-width:1"/><line style="stroke:#a80036;stroke-width:1" x1="50.5" x2="431.5" y1="261.555" y2="261.555"/><text x="62.5" y="256.622" fill="#000" font-family="sans-serif" font-size="13" font-weight="bold" lengthAdjust="spacingAndGlyphs" textLength="9">6</text><text x="75.5" y="256.622" fill="#000" font-family="sans-serif" font-size="13" lengthAdjust="spacingAndGlyphs" textLength="350">Inter-site transfer service redirects with SAML artifact...</text><polygon fill="#A80036" points="651.5 286.688 661.5 290.688 651.5 294.688 655.5 290.688" style="stroke:#a80036;stroke-width:1"/><line style="stroke:#a80036;stroke-width:1" x1="45.5" x2="657.5" y1="290.688" y2="290.688"/><text x="52.5" y="285.754" fill="#000" font-family="sans-serif" font-size="13" font-weight="bold" lengthAdjust="spacingAndGlyphs" textLength="9">7</text><text x="65.5" y="285.754" fill="#000" font-family="sans-serif" font-size="13" lengthAdjust="spacingAndGlyphs" textLength="280">...to destination site artifact receiver service</text><polygon fill="#A80036" points="443.5 315.82 433.5 319.82 443.5 323.82 439.5 319.82" style="stroke:#a80036;stroke-width:1"/><line style="stroke:#a80036;stroke-width:1" x1="437.5" x2="662.5" y1="319.82" y2="319.82"/><text x="449.5" y="314.887" fill="#000" font-family="sans-serif" font-size="13" font-weight="bold" lengthAdjust="spacingAndGlyphs" textLength="9">8</text><text x="462.5" y="314.887" fill="#000" font-family="sans-serif" font-size="13" lengthAdjust="spacingAndGlyphs" textLength="170">SAML Request with artifact</text><polygon fill="#A80036" points="651.5 344.953 661.5 348.953 651.5 352.953 655.5 348.953" style="stroke:#a80036;stroke-width:1"/><line style="stroke:#a80036;stroke-width:1" x1="432.5" x2="657.5" y1="348.953" y2="348.953"/><text x="439.5" y="344.02" fill="#000" font-family="sans-serif" font-size="13" font-weight="bold" lengthAdjust="spacingAndGlyphs" textLength="9">9</text><text x="452.5" y="344.02" fill="#000" font-family="sans-serif" font-size="13" lengthAdjust="spacingAndGlyphs" textLength="194">SAML Response with assertion</text><polygon fill="#A80036" points="56.5 374.086 46.5 378.086 56.5 382.086 52.5 378.086" style="stroke:#a80036;stroke-width:1"/><line style="stroke:#a80036;stroke-width:1" x1="50.5" x2="662.5" y1="378.086" y2="378.086"/><text x="62.5" y="373.153" fill="#000" font-family="sans-serif" font-size="13" font-weight="bold" lengthAdjust="spacingAndGlyphs" textLength="18">10</text><text x="84.5" y="373.153" fill="#000" font-family="sans-serif" font-size="13" lengthAdjust="spacingAndGlyphs" textLength="170">Redirect with SSO cookie...</text><polygon fill="#A80036" points="651.5 403.219 661.5 407.219 651.5 411.219 655.5 407.219" style="stroke:#a80036;stroke-width:1"/><line style="stroke:#a80036;stroke-width:1" x1="45.5" x2="657.5" y1="407.219" y2="407.219"/><text x="52.5" y="402.286" fill="#000" font-family="sans-serif" font-size="13" font-weight="bold" lengthAdjust="spacingAndGlyphs" textLength="18">11</text><text x="74.5" y="402.286" fill="#000" font-family="sans-serif" font-size="13" lengthAdjust="spacingAndGlyphs" textLength="97">...to target URL</text></g></svg>