<svg xmlns="http://www.w3.org/2000/svg" xmlns:xlink="http://www.w3.org/1999/xlink" width="692" height="421" contentScriptType="application/ecmascript" contentStyleType="text/css" style="width:692px;height:421px" preserveAspectRatio="none" version="1.1" viewBox="0 0 692 421" zoomAndPan="magnify"><defs><filter id="f5h39h4" width="300%" height="300%" x="-1" y="-1"><feGaussianBlur result="blurOut" stdDeviation="2"/><feColorMatrix in="blurOut" result="blurOut2" type="matrix" values="0 0 0 0 0 0 0 0 0 0 0 0 0 0 0 0 0 0 .4 0"/><feOffset dx="4" dy="4" in="blurOut2" result="blurOut3"/><feBlend in="SourceGraphic" in2="blurOut3" mode="normal"/></filter></defs><g><text x="219.5" y="22.995" fill="#000" font-family="sans-serif" font-size="14" font-weight="bold" lengthAdjust="spacingAndGlyphs" textLength="256">SAML v1.x Browser POST Profile</text><line style="stroke:#a80036;stroke-width:1;stroke-dasharray:5,5" x1="45" x2="45" y1="84.891" y2="367.086"/><line style="stroke:#a80036;stroke-width:1;stroke-dasharray:5,5" x1="474" x2="474" y1="84.891" y2="367.086"/><line style="stroke:#a80036;stroke-width:1;stroke-dasharray:5,5" x1="619" x2="619" y1="84.891" y2="367.086"/><rect style="stroke:#a80036;stroke-width:1.5" width="71" height="30.297" x="8" y="49.594" fill="#FEFECE" filter="url(#f5h39h4)"/><text x="15" y="69.589" fill="#000" font-family="sans-serif" font-size="14" lengthAdjust="spacingAndGlyphs" textLength="57">Browser</text><rect style="stroke:#a80036;stroke-width:1.5" width="71" height="30.297" x="8" y="366.086" fill="#FEFECE" filter="url(#f5h39h4)"/><text x="15" y="386.081" fill="#000" font-family="sans-serif" font-size="14" lengthAdjust="spacingAndGlyphs" textLength="57">Browser</text><rect style="stroke:#a80036;stroke-width:1.5" width="131" height="46.594" x="407" y="33.297" fill="#FEFECE" filter="url(#f5h39h4)"/><text x="421" y="53.292" fill="#000" font-family="sans-serif" font-size="14" lengthAdjust="spacingAndGlyphs" textLength="103">Asserting Party</text><text x="414" y="69.589" fill="#000" font-family="sans-serif" font-size="14" lengthAdjust="spacingAndGlyphs" textLength="117">such as OpenAM</text><rect style="stroke:#a80036;stroke-width:1.5" width="131" height="46.594" x="407" y="366.086" fill="#FEFECE" filter="url(#f5h39h4)"/><text x="421" y="386.081" fill="#000" font-family="sans-serif" font-size="14" lengthAdjust="spacingAndGlyphs" textLength="103">Asserting Party</text><text x="414" y="402.378" fill="#000" font-family="sans-serif" font-size="14" lengthAdjust="spacingAndGlyphs" textLength="117">such as OpenAM</text><rect style="stroke:#a80036;stroke-width:1.5" width="131" height="46.594" x="552" y="33.297" fill="#FEFECE" filter="url(#f5h39h4)"/><text x="573.5" y="53.292" fill="#000" font-family="sans-serif" font-size="14" lengthAdjust="spacingAndGlyphs" textLength="88">Relying Party</text><text x="559" y="69.589" fill="#000" font-family="sans-serif" font-size="14" lengthAdjust="spacingAndGlyphs" textLength="117">such as OpenAM</text><rect style="stroke:#a80036;stroke-width:1.5" width="131" height="46.594" x="552" y="366.086" fill="#FEFECE" filter="url(#f5h39h4)"/><text x="573.5" y="386.081" fill="#000" font-family="sans-serif" font-size="14" lengthAdjust="spacingAndGlyphs" textLength="88">Relying Party</text><text x="559" y="402.378" fill="#000" font-family="sans-serif" font-size="14" lengthAdjust="spacingAndGlyphs" textLength="117">such as OpenAM</text><polygon fill="#A80036" points="462.5 111.891 472.5 115.891 462.5 119.891 466.5 115.891" style="stroke:#a80036;stroke-width:1"/><line style="stroke:#a80036;stroke-width:1" x1="45.5" x2="468.5" y1="115.891" y2="115.891"/><text x="52.5" y="110.957" fill="#000" font-family="sans-serif" font-size="13" font-weight="bold" lengthAdjust="spacingAndGlyphs" textLength="9">1</text><text x="65.5" y="110.957" fill="#000" font-family="sans-serif" font-size="13" lengthAdjust="spacingAndGlyphs" textLength="137">Browse to source site</text><polygon fill="#A80036" points="56.5 141.023 46.5 145.023 56.5 149.023 52.5 145.023" style="stroke:#a80036;stroke-width:1"/><line style="stroke:#a80036;stroke-width:1" x1="50.5" x2="473.5" y1="145.023" y2="145.023"/><text x="62.5" y="140.09" fill="#000" font-family="sans-serif" font-size="13" font-weight="bold" lengthAdjust="spacingAndGlyphs" textLength="9">2</text><text x="75.5" y="140.09" fill="#000" font-family="sans-serif" font-size="13" lengthAdjust="spacingAndGlyphs" textLength="119">Present login page</text><polygon fill="#A80036" points="462.5 170.156 472.5 174.156 462.5 178.156 466.5 174.156" style="stroke:#a80036;stroke-width:1"/><line style="stroke:#a80036;stroke-width:1" x1="45.5" x2="468.5" y1="174.156" y2="174.156"/><text x="52.5" y="169.223" fill="#000" font-family="sans-serif" font-size="13" font-weight="bold" lengthAdjust="spacingAndGlyphs" textLength="9">3</text><text x="65.5" y="169.223" fill="#000" font-family="sans-serif" font-size="13" lengthAdjust="spacingAndGlyphs" textLength="141">Send login credentials</text><polygon fill="#A80036" points="56.5 199.289 46.5 203.289 56.5 207.289 52.5 203.289" style="stroke:#a80036;stroke-width:1"/><line style="stroke:#a80036;stroke-width:1" x1="50.5" x2="473.5" y1="203.289" y2="203.289"/><text x="62.5" y="198.356" fill="#000" font-family="sans-serif" font-size="13" font-weight="bold" lengthAdjust="spacingAndGlyphs" textLength="9">4</text><text x="75.5" y="198.356" fill="#000" font-family="sans-serif" font-size="13" lengthAdjust="spacingAndGlyphs" textLength="168">Show destination site links</text><polygon fill="#A80036" points="462.5 228.422 472.5 232.422 462.5 236.422 466.5 232.422" style="stroke:#a80036;stroke-width:1"/><line style="stroke:#a80036;stroke-width:1" x1="45.5" x2="468.5" y1="232.422" y2="232.422"/><text x="52.5" y="227.489" fill="#000" font-family="sans-serif" font-size="13" font-weight="bold" lengthAdjust="spacingAndGlyphs" textLength="9">5</text><text x="65.5" y="227.489" fill="#000" font-family="sans-serif" font-size="13" lengthAdjust="spacingAndGlyphs" textLength="214">Select destination site target URL</text><polygon fill="#A80036" points="56.5 257.555 46.5 261.555 56.5 265.555 52.5 261.555" style="stroke:#a80036;stroke-width:1"/><line style="stroke:#a80036;stroke-width:1" x1="50.5" x2="473.5" y1="261.555" y2="261.555"/><text x="62.5" y="256.622" fill="#000" font-family="sans-serif" font-size="13" font-weight="bold" lengthAdjust="spacingAndGlyphs" textLength="9">6</text><text x="75.5" y="256.622" fill="#000" font-family="sans-serif" font-size="13" lengthAdjust="spacingAndGlyphs" textLength="392">Inter-site transfer service responds with auto-submitting form</text><polygon fill="#A80036" points="607.5 286.688 617.5 290.688 607.5 294.688 611.5 290.688" style="stroke:#a80036;stroke-width:1"/><line style="stroke:#a80036;stroke-width:1" x1="45.5" x2="613.5" y1="290.688" y2="290.688"/><text x="52.5" y="285.754" fill="#000" font-family="sans-serif" font-size="13" font-weight="bold" lengthAdjust="spacingAndGlyphs" textLength="9">7</text><text x="65.5" y="285.754" fill="#000" font-family="sans-serif" font-size="13" lengthAdjust="spacingAndGlyphs" textLength="367">POST form to destination site assertion consumer service</text><polygon fill="#A80036" points="56.5 315.82 46.5 319.82 56.5 323.82 52.5 319.82" style="stroke:#a80036;stroke-width:1"/><line style="stroke:#a80036;stroke-width:1" x1="50.5" x2="618.5" y1="319.82" y2="319.82"/><text x="62.5" y="314.887" fill="#000" font-family="sans-serif" font-size="13" font-weight="bold" lengthAdjust="spacingAndGlyphs" textLength="9">8</text><text x="75.5" y="314.887" fill="#000" font-family="sans-serif" font-size="13" lengthAdjust="spacingAndGlyphs" textLength="310">Consume assertion &amp; redirect with SSO cookie...</text><polygon fill="#A80036" points="607.5 344.953 617.5 348.953 607.5 352.953 611.5 348.953" style="stroke:#a80036;stroke-width:1"/><line style="stroke:#a80036;stroke-width:1" x1="45.5" x2="613.5" y1="348.953" y2="348.953"/><text x="52.5" y="344.02" fill="#000" font-family="sans-serif" font-size="13" font-weight="bold" lengthAdjust="spacingAndGlyphs" textLength="9">9</text><text x="65.5" y="344.02" fill="#000" font-family="sans-serif" font-size="13" lengthAdjust="spacingAndGlyphs" textLength="97">...to target URL</text></g></svg>