<svg xmlns="http://www.w3.org/2000/svg" xmlns:xlink="http://www.w3.org/1999/xlink" width="774" height="543" contentScriptType="application/ecmascript" contentStyleType="text/css" style="width:774px;height:543px" preserveAspectRatio="none" version="1.1" viewBox="0 0 774 543" zoomAndPan="magnify"><defs><filter id="fyjlxyv" width="300%" height="300%" x="-1" y="-1"><feGaussianBlur result="blurOut" stdDeviation="2"/><feColorMatrix in="blurOut" result="blurOut2" type="matrix" values="0 0 0 0 0 0 0 0 0 0 0 0 0 0 0 0 0 0 .4 0"/><feOffset dx="4" dy="4" in="blurOut2" result="blurOut3"/><feBlend in="SourceGraphic" in2="blurOut3" mode="normal"/></filter></defs><g><text x="301.75" y="22.995" fill="#000" font-family="sans-serif" font-size="14" font-weight="bold" lengthAdjust="spacingAndGlyphs" textLength="174">SSO with Policy Agent</text><rect style="stroke:#a80036;stroke-width:1" width="314" height="507.719" x="459.5" y="34.297" fill="#FAFAFA"/><text x="585.5" y="46.364" fill="#000" font-family="sans-serif" font-size="13" font-weight="bold" lengthAdjust="spacingAndGlyphs" textLength="62">OpenAM</text><line style="stroke:#a80036;stroke-width:1;stroke-dasharray:5,5" x1="45" x2="45" y1="88.727" y2="503.719"/><line style="stroke:#a80036;stroke-width:1;stroke-dasharray:5,5" x1="317.5" x2="317.5" y1="88.727" y2="503.719"/><line style="stroke:#a80036;stroke-width:1;stroke-dasharray:5,5" x1="554.5" x2="554.5" y1="88.727" y2="503.719"/><line style="stroke:#a80036;stroke-width:1;stroke-dasharray:5,5" x1="712.5" x2="712.5" y1="88.727" y2="503.719"/><rect style="stroke:#a80036;stroke-width:1.5" width="71" height="30.297" x="8" y="53.43" fill="#FEFECE" filter="url(#fyjlxyv)"/><text x="15" y="73.425" fill="#000" font-family="sans-serif" font-size="14" lengthAdjust="spacingAndGlyphs" textLength="57">Browser</text><rect style="stroke:#a80036;stroke-width:1.5" width="71" height="30.297" x="8" y="502.719" fill="#FEFECE" filter="url(#fyjlxyv)"/><text x="15" y="522.714" fill="#000" font-family="sans-serif" font-size="14" lengthAdjust="spacingAndGlyphs" textLength="57">Browser</text><rect style="stroke:#a80036;stroke-width:1.5" width="150" height="30.297" x="240.5" y="53.43" fill="#FEFECE" filter="url(#fyjlxyv)"/><text x="247.5" y="73.425" fill="#000" font-family="sans-serif" font-size="14" lengthAdjust="spacingAndGlyphs" textLength="136">Application &amp; Agent</text><rect style="stroke:#a80036;stroke-width:1.5" width="150" height="30.297" x="240.5" y="502.719" fill="#FEFECE" filter="url(#fyjlxyv)"/><text x="247.5" y="522.714" fill="#000" font-family="sans-serif" font-size="14" lengthAdjust="spacingAndGlyphs" textLength="136">Application &amp; Agent</text><rect style="stroke:#a80036;stroke-width:1.5" width="178" height="30.297" x="463.5" y="53.43" fill="#FEFECE" filter="url(#fyjlxyv)"/><text x="470.5" y="73.425" fill="#000" font-family="sans-serif" font-size="14" lengthAdjust="spacingAndGlyphs" textLength="164">Policy, Session Services</text><rect style="stroke:#a80036;stroke-width:1.5" width="178" height="30.297" x="463.5" y="502.719" fill="#FEFECE" filter="url(#fyjlxyv)"/><text x="470.5" y="522.714" fill="#000" font-family="sans-serif" font-size="14" lengthAdjust="spacingAndGlyphs" textLength="164">Policy, Session Services</text><rect style="stroke:#a80036;stroke-width:1.5" width="110" height="30.297" x="655.5" y="53.43" fill="#FEFECE" filter="url(#fyjlxyv)"/><text x="662.5" y="73.425" fill="#000" font-family="sans-serif" font-size="14" lengthAdjust="spacingAndGlyphs" textLength="96">AuthN Service</text><rect style="stroke:#a80036;stroke-width:1.5" width="110" height="30.297" x="655.5" y="502.719" fill="#FEFECE" filter="url(#fyjlxyv)"/><text x="662.5" y="522.714" fill="#000" font-family="sans-serif" font-size="14" lengthAdjust="spacingAndGlyphs" textLength="96">AuthN Service</text><polygon fill="#A80036" points="305.5 145.727 315.5 149.727 305.5 153.727 309.5 149.727" style="stroke:#a80036;stroke-width:1"/><line style="stroke:#a80036;stroke-width:1" x1="45.5" x2="311.5" y1="149.727" y2="149.727"/><text x="52.5" y="129.926" fill="#000" font-family="sans-serif" font-size="13" font-weight="bold" lengthAdjust="spacingAndGlyphs" textLength="9">1</text><text x="65.5" y="114.793" fill="#000" font-family="sans-serif" font-size="13" lengthAdjust="spacingAndGlyphs" textLength="204">Browse to protected resource. If</text><text x="65.5" y="129.926" fill="#000" font-family="sans-serif" font-size="13" lengthAdjust="spacingAndGlyphs" textLength="193">a session is present, skip to 8.</text><text x="65.5" y="145.059" fill="#000" font-family="sans-serif" font-size="13" lengthAdjust="spacingAndGlyphs" textLength="75">Otherwise...</text><polygon fill="#A80036" points="56.5 175.125 46.5 179.125 56.5 183.125 52.5 179.125" style="stroke:#a80036;stroke-width:1"/><line style="stroke:#a80036;stroke-width:1" x1="50.5" x2="316.5" y1="179.125" y2="179.125"/><text x="62.5" y="174.192" fill="#000" font-family="sans-serif" font-size="13" font-weight="bold" lengthAdjust="spacingAndGlyphs" textLength="9">2</text><text x="75.5" y="174.192" fill="#000" font-family="sans-serif" font-size="13" lengthAdjust="spacingAndGlyphs" textLength="64">Redirect...</text><polygon fill="#A80036" points="700.5 204.258 710.5 208.258 700.5 212.258 704.5 208.258" style="stroke:#a80036;stroke-width:1"/><line style="stroke:#a80036;stroke-width:1" x1="45.5" x2="706.5" y1="208.258" y2="208.258"/><text x="52.5" y="203.325" fill="#000" font-family="sans-serif" font-size="13" font-weight="bold" lengthAdjust="spacingAndGlyphs" textLength="9">3</text><text x="65.5" y="203.325" fill="#000" font-family="sans-serif" font-size="13" lengthAdjust="spacingAndGlyphs" textLength="204">...to OpenAM for authentication.</text><polygon fill="#A80036" points="56.5 233.391 46.5 237.391 56.5 241.391 52.5 237.391" style="stroke:#a80036;stroke-width:1"/><line style="stroke:#a80036;stroke-width:1" x1="50.5" x2="711.5" y1="237.391" y2="237.391"/><text x="62.5" y="232.458" fill="#000" font-family="sans-serif" font-size="13" font-weight="bold" lengthAdjust="spacingAndGlyphs" textLength="9">4</text><text x="75.5" y="232.458" fill="#000" font-family="sans-serif" font-size="13" lengthAdjust="spacingAndGlyphs" textLength="129">Authentication page</text><polygon fill="#A80036" points="700.5 262.523 710.5 266.523 700.5 270.523 704.5 266.523" style="stroke:#a80036;stroke-width:1"/><line style="stroke:#a80036;stroke-width:1" x1="45.5" x2="706.5" y1="266.523" y2="266.523"/><text x="52.5" y="261.59" fill="#000" font-family="sans-serif" font-size="13" font-weight="bold" lengthAdjust="spacingAndGlyphs" textLength="9">5</text><text x="65.5" y="261.59" fill="#000" font-family="sans-serif" font-size="13" lengthAdjust="spacingAndGlyphs" textLength="124">Submit credentials.</text><polygon fill="#A80036" points="56.5 291.656 46.5 295.656 56.5 299.656 52.5 295.656" style="stroke:#a80036;stroke-width:1"/><line style="stroke:#a80036;stroke-width:1" x1="50.5" x2="711.5" y1="295.656" y2="295.656"/><text x="62.5" y="290.723" fill="#000" font-family="sans-serif" font-size="13" font-weight="bold" lengthAdjust="spacingAndGlyphs" textLength="9">6</text><text x="75.5" y="290.723" fill="#000" font-family="sans-serif" font-size="13" lengthAdjust="spacingAndGlyphs" textLength="414">Set valid session for the configured domain name, and redirect...</text><polygon fill="#A80036" points="305.5 320.789 315.5 324.789 305.5 328.789 309.5 324.789" style="stroke:#a80036;stroke-width:1"/><line style="stroke:#a80036;stroke-width:1" x1="45.5" x2="311.5" y1="324.789" y2="324.789"/><text x="52.5" y="319.856" fill="#000" font-family="sans-serif" font-size="13" font-weight="bold" lengthAdjust="spacingAndGlyphs" textLength="9">7</text><text x="65.5" y="319.856" fill="#000" font-family="sans-serif" font-size="13" lengthAdjust="spacingAndGlyphs" textLength="127">...to the application.</text><polygon fill="#A80036" points="542.5 349.922 552.5 353.922 542.5 357.922 546.5 353.922" style="stroke:#a80036;stroke-width:1"/><line style="stroke:#a80036;stroke-width:1" x1="317.5" x2="548.5" y1="353.922" y2="353.922"/><text x="324.5" y="348.989" fill="#000" font-family="sans-serif" font-size="13" font-weight="bold" lengthAdjust="spacingAndGlyphs" textLength="9">8</text><text x="337.5" y="348.989" fill="#000" font-family="sans-serif" font-size="13" lengthAdjust="spacingAndGlyphs" textLength="169">Request session validation</text><polygon fill="#A80036" points="328.5 379.055 318.5 383.055 328.5 387.055 324.5 383.055" style="stroke:#a80036;stroke-width:1"/><line style="stroke:#a80036;stroke-width:1" x1="322.5" x2="553.5" y1="383.055" y2="383.055"/><text x="334.5" y="378.122" fill="#000" font-family="sans-serif" font-size="13" font-weight="bold" lengthAdjust="spacingAndGlyphs" textLength="9">9</text><text x="347.5" y="378.122" fill="#000" font-family="sans-serif" font-size="13" lengthAdjust="spacingAndGlyphs" textLength="200">Response for session validation</text><polygon fill="#A80036" points="542.5 408.188 552.5 412.188 542.5 416.188 546.5 412.188" style="stroke:#a80036;stroke-width:1"/><line style="stroke:#a80036;stroke-width:1" x1="317.5" x2="548.5" y1="412.188" y2="412.188"/><text x="324.5" y="407.254" fill="#000" font-family="sans-serif" font-size="13" font-weight="bold" lengthAdjust="spacingAndGlyphs" textLength="18">10</text><text x="346.5" y="407.254" fill="#000" font-family="sans-serif" font-size="13" lengthAdjust="spacingAndGlyphs" textLength="148">Request policy decision</text><polygon fill="#A80036" points="328.5 437.32 318.5 441.32 328.5 445.32 324.5 441.32" style="stroke:#a80036;stroke-width:1"/><line style="stroke:#a80036;stroke-width:1" x1="322.5" x2="553.5" y1="441.32" y2="441.32"/><text x="334.5" y="436.387" fill="#000" font-family="sans-serif" font-size="13" font-weight="bold" lengthAdjust="spacingAndGlyphs" textLength="18">11</text><text x="356.5" y="436.387" fill="#000" font-family="sans-serif" font-size="13" lengthAdjust="spacingAndGlyphs" textLength="179">Response for policy decision</text><polygon fill="#A80036" points="56.5 481.453 46.5 485.453 56.5 489.453 52.5 485.453" style="stroke:#a80036;stroke-width:1"/><line style="stroke:#a80036;stroke-width:1" x1="50.5" x2="316.5" y1="485.453" y2="485.453"/><text x="62.5" y="473.086" fill="#000" font-family="sans-serif" font-size="13" font-weight="bold" lengthAdjust="spacingAndGlyphs" textLength="18">12</text><text x="84.5" y="465.52" fill="#000" font-family="sans-serif" font-size="13" lengthAdjust="spacingAndGlyphs" textLength="202">Allow access &amp; return resource,</text><text x="88.5" y="480.653" fill="#000" font-family="sans-serif" font-size="13" lengthAdjust="spacingAndGlyphs" textLength="222">or deny access &amp; return HTTP 403.</text></g></svg>