<svg xmlns="http://www.w3.org/2000/svg" xmlns:xlink="http://www.w3.org/1999/xlink" width="651" height="505" contentScriptType="application/ecmascript" contentStyleType="text/css" style="width:651px;height:505px" preserveAspectRatio="none" version="1.1" viewBox="0 0 651 505" zoomAndPan="magnify"><defs><filter id="frfmtdo" width="300%" height="300%" x="-1" y="-1"><feGaussianBlur result="blurOut" stdDeviation="2"/><feColorMatrix in="blurOut" result="blurOut2" type="matrix" values="0 0 0 0 0 0 0 0 0 0 0 0 0 0 0 0 0 0 .4 0"/><feOffset dx="4" dy="4" in="blurOut2" result="blurOut3"/><feBlend in="SourceGraphic" in2="blurOut3" mode="normal"/></filter></defs><g><text x="172.75" y="22.995" fill="#000" font-family="sans-serif" font-size="14" font-weight="bold" lengthAdjust="spacingAndGlyphs" textLength="309">Accessing an UMA-Protected Resource</text><line style="stroke:#a80036;stroke-width:1;stroke-dasharray:5,5" x1="97" x2="97" y1="84.891" y2="450.484"/><line style="stroke:#a80036;stroke-width:1;stroke-dasharray:5,5" x1="333.5" x2="333.5" y1="84.891" y2="450.484"/><line style="stroke:#a80036;stroke-width:1;stroke-dasharray:5,5" x1="567.5" x2="567.5" y1="84.891" y2="450.484"/><rect style="stroke:#a80036;stroke-width:1.5" width="174" height="46.594" x="8" y="33.297" fill="#FEFECE" filter="url(#frfmtdo)"/><text x="36" y="53.292" fill="#000" font-family="sans-serif" font-size="14" lengthAdjust="spacingAndGlyphs" textLength="118">Requesting Party</text><text x="15" y="69.589" fill="#000" font-family="sans-serif" font-size="14" lengthAdjust="spacingAndGlyphs" textLength="160">using Client Application</text><rect style="stroke:#a80036;stroke-width:1.5" width="174" height="46.594" x="8" y="449.484" fill="#FEFECE" filter="url(#frfmtdo)"/><text x="36" y="469.479" fill="#000" font-family="sans-serif" font-size="14" lengthAdjust="spacingAndGlyphs" textLength="118">Requesting Party</text><text x="15" y="485.776" fill="#000" font-family="sans-serif" font-size="14" lengthAdjust="spacingAndGlyphs" textLength="160">using Client Application</text><rect style="stroke:#a80036;stroke-width:1.5" width="81" height="46.594" x="291.5" y="33.297" fill="#FEFECE" filter="url(#frfmtdo)"/><text x="298.5" y="53.292" fill="#000" font-family="sans-serif" font-size="14" lengthAdjust="spacingAndGlyphs" textLength="67">Resource</text><text x="310" y="69.589" fill="#000" font-family="sans-serif" font-size="14" lengthAdjust="spacingAndGlyphs" textLength="44">Server</text><rect style="stroke:#a80036;stroke-width:1.5" width="81" height="46.594" x="291.5" y="449.484" fill="#FEFECE" filter="url(#frfmtdo)"/><text x="298.5" y="469.479" fill="#000" font-family="sans-serif" font-size="14" lengthAdjust="spacingAndGlyphs" textLength="67">Resource</text><text x="310" y="485.776" fill="#000" font-family="sans-serif" font-size="14" lengthAdjust="spacingAndGlyphs" textLength="44">Server</text><rect style="stroke:#a80036;stroke-width:1.5" width="153" height="46.594" x="489.5" y="33.297" fill="#FEFECE" filter="url(#frfmtdo)"/><text x="536.5" y="53.292" fill="#000" font-family="sans-serif" font-size="14" lengthAdjust="spacingAndGlyphs" textLength="59">OpenAM</text><text x="496.5" y="69.589" fill="#000" font-family="sans-serif" font-size="14" lengthAdjust="spacingAndGlyphs" textLength="139">Authorization Server</text><rect style="stroke:#a80036;stroke-width:1.5" width="153" height="46.594" x="489.5" y="449.484" fill="#FEFECE" filter="url(#frfmtdo)"/><text x="536.5" y="469.479" fill="#000" font-family="sans-serif" font-size="14" lengthAdjust="spacingAndGlyphs" textLength="59">OpenAM</text><text x="496.5" y="485.776" fill="#000" font-family="sans-serif" font-size="14" lengthAdjust="spacingAndGlyphs" textLength="139">Authorization Server</text><polygon fill="#A80036" points="322 126.891 332 130.891 322 134.891 326 130.891" style="stroke:#a80036;stroke-width:1"/><line style="stroke:#a80036;stroke-width:1" x1="97" x2="328" y1="130.891" y2="130.891"/><text x="104" y="118.524" fill="#000" font-family="sans-serif" font-size="13" font-weight="bold" lengthAdjust="spacingAndGlyphs" textLength="9">1</text><text x="117" y="110.957" fill="#000" font-family="sans-serif" font-size="13" lengthAdjust="spacingAndGlyphs" textLength="89">Request to an</text><text x="117" y="126.09" fill="#000" font-family="sans-serif" font-size="13" lengthAdjust="spacingAndGlyphs" textLength="157">UMA-protected resource</text><polygon fill="#A80036" points="556 156.156 566 160.156 556 164.156 560 160.156" style="stroke:#a80036;stroke-width:1"/><line style="stroke:#a80036;stroke-width:1;stroke-dasharray:2,2" x1="334" x2="562" y1="160.156" y2="160.156"/><text x="341" y="155.223" fill="#000" font-family="sans-serif" font-size="13" font-weight="bold" lengthAdjust="spacingAndGlyphs" textLength="9">2</text><text x="354" y="155.223" fill="#000" font-family="sans-serif" font-size="13" lengthAdjust="spacingAndGlyphs" textLength="179">Permission request and PAT</text><polygon fill="#A80036" points="345 185.289 335 189.289 345 193.289 341 189.289" style="stroke:#a80036;stroke-width:1"/><line style="stroke:#a80036;stroke-width:1;stroke-dasharray:2,2" x1="339" x2="567" y1="189.289" y2="189.289"/><text x="351" y="184.356" fill="#000" font-family="sans-serif" font-size="13" font-weight="bold" lengthAdjust="spacingAndGlyphs" textLength="9">3</text><text x="364" y="184.356" fill="#000" font-family="sans-serif" font-size="13" lengthAdjust="spacingAndGlyphs" textLength="109">Permission ticket</text><polygon fill="#A80036" points="108 214.422 98 218.422 108 222.422 104 218.422" style="stroke:#a80036;stroke-width:1"/><line style="stroke:#a80036;stroke-width:1;stroke-dasharray:2,2" x1="102" x2="333" y1="218.422" y2="218.422"/><text x="114" y="213.489" fill="#000" font-family="sans-serif" font-size="13" font-weight="bold" lengthAdjust="spacingAndGlyphs" textLength="9">4</text><text x="127" y="213.489" fill="#000" font-family="sans-serif" font-size="13" lengthAdjust="spacingAndGlyphs" textLength="109">Permission ticket</text><polygon fill="#A80036" points="556 243.555 566 247.555 556 251.555 560 247.555" style="stroke:#a80036;stroke-width:1"/><line style="stroke:#a80036;stroke-width:1;stroke-dasharray:2,2" x1="97" x2="562" y1="247.555" y2="247.555"/><text x="104" y="242.622" fill="#000" font-family="sans-serif" font-size="13" font-weight="bold" lengthAdjust="spacingAndGlyphs" textLength="9">5</text><text x="117" y="242.622" fill="#000" font-family="sans-serif" font-size="13" lengthAdjust="spacingAndGlyphs" textLength="166">Permission ticket and AAT</text><polygon fill="#FBFB77" points="509 260.688 509 285.688 622 285.688 622 270.688 612 260.688 509 260.688" filter="url(#frfmtdo)" style="stroke:#a80036;stroke-width:1"/><line style="stroke:#a80036;stroke-width:1" x1="612" x2="612" y1="260.688" y2="270.688"/><line style="stroke:#a80036;stroke-width:1" x1="622" x2="612" y1="270.688" y2="270.688"/><text x="515" y="277.754" fill="#000" font-family="sans-serif" font-size="13" lengthAdjust="spacingAndGlyphs" textLength="92">Policy decision</text><polygon fill="#A80036" points="108 311.82 98 315.82 108 319.82 104 315.82" style="stroke:#a80036;stroke-width:1"/><line style="stroke:#a80036;stroke-width:1;stroke-dasharray:2,2" x1="102" x2="567" y1="315.82" y2="315.82"/><text x="114" y="310.887" fill="#000" font-family="sans-serif" font-size="13" font-weight="bold" lengthAdjust="spacingAndGlyphs" textLength="9">6</text><text x="127" y="310.887" fill="#000" font-family="sans-serif" font-size="13" lengthAdjust="spacingAndGlyphs" textLength="187">Requesting Party Token (RPT)</text><polygon fill="#A80036" points="322 340.953 332 344.953 322 348.953 326 344.953" style="stroke:#a80036;stroke-width:1"/><line style="stroke:#a80036;stroke-width:1;stroke-dasharray:2,2" x1="97" x2="328" y1="344.953" y2="344.953"/><text x="104" y="340.02" fill="#000" font-family="sans-serif" font-size="13" font-weight="bold" lengthAdjust="spacingAndGlyphs" textLength="9">7</text><text x="117" y="340.02" fill="#000" font-family="sans-serif" font-size="13" lengthAdjust="spacingAndGlyphs" textLength="23">RPT</text><polygon fill="#A80036" points="556 370.086 566 374.086 556 378.086 560 374.086" style="stroke:#a80036;stroke-width:1"/><line style="stroke:#a80036;stroke-width:1;stroke-dasharray:2,2" x1="334" x2="562" y1="374.086" y2="374.086"/><text x="341" y="369.153" fill="#000" font-family="sans-serif" font-size="13" font-weight="bold" lengthAdjust="spacingAndGlyphs" textLength="9">8</text><text x="354" y="369.153" fill="#000" font-family="sans-serif" font-size="13" lengthAdjust="spacingAndGlyphs" textLength="197">Introspect RPT to check validity</text><polygon fill="#A80036" points="345 399.219 335 403.219 345 407.219 341 403.219" style="stroke:#a80036;stroke-width:1"/><line style="stroke:#a80036;stroke-width:1;stroke-dasharray:2,2" x1="339" x2="567" y1="403.219" y2="403.219"/><text x="351" y="398.286" fill="#000" font-family="sans-serif" font-size="13" font-weight="bold" lengthAdjust="spacingAndGlyphs" textLength="9">9</text><text x="364" y="398.286" fill="#000" font-family="sans-serif" font-size="13" lengthAdjust="spacingAndGlyphs" textLength="114">Validity confirmed</text><polygon fill="#A80036" points="108 428.352 98 432.352 108 436.352 104 432.352" style="stroke:#a80036;stroke-width:1"/><line style="stroke:#a80036;stroke-width:1" x1="102" x2="333" y1="432.352" y2="432.352"/><text x="114" y="427.418" fill="#000" font-family="sans-serif" font-size="13" font-weight="bold" lengthAdjust="spacingAndGlyphs" textLength="18">10</text><text x="136" y="427.418" fill="#000" font-family="sans-serif" font-size="13" lengthAdjust="spacingAndGlyphs" textLength="191">Access to requested resource</text></g></svg>